G04 #@! TF.GenerationSoftware,KiCad,Pcbnew,(5.1.2)-2*
G04 #@! TF.CreationDate,2021-03-29T10:10:18+02:00*
G04 #@! TF.ProjectId,Projet_Cabinet,50726f6a-6574-45f4-9361-62696e65742e,rev?*
G04 #@! TF.SameCoordinates,Original*
G04 #@! TF.FileFunction,Copper,L2,Bot*
G04 #@! TF.FilePolarity,Positive*
%FSLAX46Y46*%
G04 Gerber Fmt 4.6, Leading zero omitted, Abs format (unit mm)*
G04 Created by KiCad (PCBNEW (5.1.2)-2) date 2021-03-29 10:10:18*
%MOMM*%
%LPD*%
G04 APERTURE LIST*
%ADD10O,2.000000X1.200000*%
%ADD11C,2.000000*%
%ADD12R,2.000000X2.000000*%
%ADD13O,1.600000X1.600000*%
%ADD14C,1.600000*%
%ADD15O,1.400000X1.400000*%
%ADD16C,1.400000*%
%ADD17O,1.727200X2.032000*%
%ADD18C,4.064000*%
%ADD19C,0.500000*%
%ADD20C,0.254000*%
G04 APERTURE END LIST*
D10*
X171958000Y-111760000D03*
X171958000Y-109220000D03*
X171958000Y-106680000D03*
X171958000Y-104140000D03*
D11*
X161798000Y-92075000D03*
X161798000Y-89535000D03*
X161798000Y-86995000D03*
X161798000Y-84455000D03*
X161798000Y-81915000D03*
X118618000Y-83820000D03*
X121158000Y-83820000D03*
X123698000Y-83820000D03*
X126238000Y-83820000D03*
X131318000Y-108585000D03*
X138838000Y-108585000D03*
X131318000Y-106045000D03*
X138838000Y-106045000D03*
X131318000Y-103505000D03*
X138838000Y-103505000D03*
D12*
X131318000Y-100965000D03*
D11*
X138838000Y-100965000D03*
D13*
X158623000Y-104140000D03*
D14*
X145923000Y-104140000D03*
D13*
X114173000Y-98425000D03*
D14*
X126873000Y-98425000D03*
D13*
X113538000Y-118745000D03*
D14*
X126238000Y-118745000D03*
D13*
X114173000Y-109855000D03*
D14*
X126873000Y-109855000D03*
D13*
X126873000Y-102870000D03*
D14*
X114173000Y-102870000D03*
D15*
X123698000Y-89535000D03*
D16*
X126238000Y-89535000D03*
D14*
X118063000Y-114300000D03*
X123063000Y-114300000D03*
X145923000Y-97195000D03*
X145923000Y-99695000D03*
X162433000Y-104180000D03*
X162433000Y-106680000D03*
X116673000Y-106680000D03*
X114173000Y-106680000D03*
D17*
X138938000Y-123825000D03*
X141478000Y-123825000D03*
X144018000Y-123825000D03*
X146558000Y-123825000D03*
X149098000Y-123825000D03*
X151638000Y-123825000D03*
X154178000Y-123825000D03*
X156718000Y-123825000D03*
X161798000Y-123825000D03*
X164338000Y-123825000D03*
X166878000Y-123825000D03*
X169418000Y-123825000D03*
X171958000Y-123825000D03*
X174498000Y-123825000D03*
X129794000Y-75565000D03*
X132334000Y-75565000D03*
X134874000Y-75565000D03*
X137414000Y-75565000D03*
X139954000Y-75565000D03*
X142494000Y-75565000D03*
X145034000Y-75565000D03*
X147574000Y-75565000D03*
X150114000Y-75565000D03*
X152654000Y-75565000D03*
X156718000Y-75565000D03*
X159258000Y-75565000D03*
X161798000Y-75565000D03*
X164338000Y-75565000D03*
X166878000Y-75565000D03*
X169418000Y-75565000D03*
X171958000Y-75565000D03*
X174498000Y-75565000D03*
D18*
X124968000Y-123825000D03*
X177038000Y-118745000D03*
X126238000Y-75565000D03*
X177038000Y-90805000D03*
D19*
X126238000Y-85234213D02*
X126238000Y-89535000D01*
X126238000Y-83820000D02*
X126238000Y-85234213D01*
X126238000Y-89535000D02*
X142113000Y-89535000D01*
X140843000Y-89535000D02*
X142113000Y-89535000D01*
X142648000Y-99695000D02*
X145923000Y-99695000D01*
X138838000Y-103505000D02*
X142648000Y-99695000D01*
X146722999Y-100494999D02*
X145923000Y-99695000D01*
X149098000Y-102870000D02*
X146722999Y-100494999D01*
X149098000Y-123825000D02*
X149098000Y-102870000D01*
X171958000Y-103505000D02*
X171958000Y-104140000D01*
X171958000Y-99695000D02*
X171958000Y-104140000D01*
X161798000Y-89535000D02*
X171958000Y-99695000D01*
X149098000Y-93345000D02*
X152908000Y-89535000D01*
X149098000Y-102870000D02*
X149098000Y-93345000D01*
X142113000Y-89535000D02*
X152908000Y-89535000D01*
X152908000Y-89535000D02*
X161798000Y-89535000D01*
X137414000Y-75717400D02*
X137414000Y-75565000D01*
X171958000Y-106680000D02*
X172358000Y-106680000D01*
X114173000Y-98425000D02*
X114173000Y-102870000D01*
X114173000Y-102870000D02*
X114173000Y-106680000D01*
X126238000Y-106045000D02*
X131318000Y-106045000D01*
X124333000Y-104140000D02*
X126238000Y-106045000D01*
X114173000Y-106680000D02*
X116713000Y-104140000D01*
X116713000Y-104140000D02*
X124333000Y-104140000D01*
X161301630Y-106680000D02*
X162433000Y-106680000D01*
X160031630Y-106680000D02*
X161301630Y-106680000D01*
X158623000Y-105271370D02*
X160031630Y-106680000D01*
X158623000Y-104140000D02*
X158623000Y-105271370D01*
X162433000Y-123190000D02*
X161798000Y-123825000D01*
X162433000Y-106680000D02*
X162433000Y-123190000D01*
X132317999Y-104504999D02*
X131318000Y-103505000D01*
X133858000Y-106045000D02*
X132317999Y-104504999D01*
X133858000Y-108585000D02*
X133858000Y-106045000D01*
X131788001Y-110654999D02*
X133858000Y-108585000D01*
X126873000Y-109855000D02*
X127672999Y-110654999D01*
X127672999Y-110654999D02*
X131788001Y-110654999D01*
X122508000Y-109855000D02*
X126873000Y-109855000D01*
X118063000Y-114300000D02*
X122508000Y-109855000D01*
X117983000Y-114300000D02*
X118063000Y-114300000D01*
X113538000Y-118745000D02*
X117983000Y-114300000D01*
X126238000Y-117475000D02*
X123063000Y-114300000D01*
X126238000Y-118745000D02*
X126238000Y-117475000D01*
X130583000Y-114300000D02*
X138838000Y-106045000D01*
X123063000Y-114300000D02*
X130583000Y-114300000D01*
X138838000Y-106045000D02*
X144018000Y-106045000D01*
X144018000Y-106045000D02*
X145923000Y-104140000D01*
X171958000Y-112860000D02*
X171958000Y-123825000D01*
X171958000Y-111760000D02*
X171958000Y-112860000D01*
X171958000Y-109220000D02*
X172358000Y-109220000D01*
X174498000Y-121920000D02*
X174498000Y-123825000D01*
X173863000Y-121285000D02*
X174498000Y-121920000D01*
X172358000Y-109220000D02*
X173863000Y-110725000D01*
X173863000Y-117475000D02*
X173863000Y-121285000D01*
X173863000Y-116205000D02*
X173863000Y-117475000D01*
X173863000Y-110725000D02*
X173863000Y-117475000D01*
X145034000Y-76581000D02*
X145034000Y-75565000D01*
X145034000Y-75717400D02*
X145034000Y-75565000D01*
X145034000Y-76454000D02*
X145034000Y-75565000D01*
X142748000Y-78740000D02*
X145034000Y-76454000D01*
X118618000Y-83820000D02*
X123698000Y-78740000D01*
X123698000Y-78740000D02*
X142748000Y-78740000D01*
X121158000Y-83820000D02*
X124968000Y-80010000D01*
X147574000Y-75717400D02*
X147574000Y-75565000D01*
X143281400Y-80010000D02*
X147574000Y-75717400D01*
X128143000Y-80010000D02*
X143281400Y-80010000D01*
X124968000Y-80010000D02*
X128143000Y-80010000D01*
X128143000Y-80010000D02*
X128676400Y-80010000D01*
X160383787Y-86995000D02*
X161798000Y-86995000D01*
X159893000Y-86995000D02*
X161798000Y-86995000D01*
X160331990Y-77031010D02*
X161798000Y-75565000D01*
X156521990Y-77031010D02*
X160331990Y-77031010D01*
X154178000Y-79375000D02*
X156521990Y-77031010D01*
X154178000Y-85090000D02*
X154178000Y-79375000D01*
X156083000Y-86995000D02*
X154178000Y-85090000D01*
X161798000Y-86995000D02*
X156083000Y-86995000D01*
X161798000Y-84455000D02*
X159258000Y-84455000D01*
X159258000Y-84455000D02*
X157988000Y-83185000D01*
X157988000Y-83185000D02*
X157988000Y-80645000D01*
X157988000Y-80645000D02*
X159258000Y-79375000D01*
X164338000Y-75717400D02*
X164338000Y-75565000D01*
X160680400Y-79375000D02*
X164338000Y-75717400D01*
X159258000Y-79375000D02*
X160680400Y-79375000D01*
X169418000Y-75717400D02*
X169418000Y-75565000D01*
X163220400Y-81915000D02*
X166954200Y-78181200D01*
X161798000Y-81915000D02*
X163220400Y-81915000D01*
X166704369Y-78431031D02*
X166954200Y-78181200D01*
X166954200Y-78181200D02*
X169418000Y-75717400D01*
X126873000Y-95885000D02*
X126873000Y-98425000D01*
X123698000Y-89535000D02*
X123698000Y-92710000D01*
X123698000Y-92710000D02*
X126873000Y-95885000D01*
D20*
G36*
X124166406Y-73864887D02*
G01*
X123874536Y-74301702D01*
X123673492Y-74787065D01*
X123571000Y-75302323D01*
X123571000Y-75827677D01*
X123673492Y-76342935D01*
X123874536Y-76828298D01*
X124166406Y-77265113D01*
X124537887Y-77636594D01*
X124864755Y-77855000D01*
X123741469Y-77855000D01*
X123698000Y-77850719D01*
X123654531Y-77855000D01*
X123654523Y-77855000D01*
X123524510Y-77867805D01*
X123357687Y-77918411D01*
X123203941Y-78000589D01*
X123102953Y-78083468D01*
X123102951Y-78083470D01*
X123069183Y-78111183D01*
X123041470Y-78144951D01*
X118964525Y-82221897D01*
X118779033Y-82185000D01*
X118456967Y-82185000D01*
X118141088Y-82247832D01*
X117843537Y-82371082D01*
X117575748Y-82550013D01*
X117348013Y-82777748D01*
X117169082Y-83045537D01*
X117045832Y-83343088D01*
X116983000Y-83658967D01*
X116983000Y-83981033D01*
X117045832Y-84296912D01*
X117169082Y-84594463D01*
X117348013Y-84862252D01*
X117575748Y-85089987D01*
X117843537Y-85268918D01*
X118141088Y-85392168D01*
X118456967Y-85455000D01*
X118779033Y-85455000D01*
X119094912Y-85392168D01*
X119392463Y-85268918D01*
X119660252Y-85089987D01*
X119887987Y-84862252D01*
X119888000Y-84862233D01*
X119888013Y-84862252D01*
X120115748Y-85089987D01*
X120383537Y-85268918D01*
X120681088Y-85392168D01*
X120996967Y-85455000D01*
X121319033Y-85455000D01*
X121634912Y-85392168D01*
X121932463Y-85268918D01*
X122200252Y-85089987D01*
X122334826Y-84955413D01*
X122742192Y-84955413D01*
X122837956Y-85219814D01*
X123127571Y-85360704D01*
X123439108Y-85442384D01*
X123760595Y-85461718D01*
X124079675Y-85417961D01*
X124384088Y-85312795D01*
X124558044Y-85219814D01*
X124653808Y-84955413D01*
X123698000Y-83999605D01*
X122742192Y-84955413D01*
X122334826Y-84955413D01*
X122427987Y-84862252D01*
X122500720Y-84753400D01*
X122562587Y-84775808D01*
X123518395Y-83820000D01*
X123504253Y-83805858D01*
X123683858Y-83626253D01*
X123698000Y-83640395D01*
X124653808Y-82684587D01*
X124558044Y-82420186D01*
X124268429Y-82279296D01*
X124016369Y-82213210D01*
X125334579Y-80895000D01*
X143237931Y-80895000D01*
X143281400Y-80899281D01*
X143324869Y-80895000D01*
X143324877Y-80895000D01*
X143454890Y-80882195D01*
X143621713Y-80831589D01*
X143775459Y-80749411D01*
X143910217Y-80638817D01*
X143937934Y-80605044D01*
X147342526Y-77200452D01*
X147574000Y-77223251D01*
X147867777Y-77194316D01*
X148150264Y-77108625D01*
X148410606Y-76969469D01*
X148638797Y-76782197D01*
X148826069Y-76554006D01*
X148844000Y-76520459D01*
X148861931Y-76554006D01*
X149049203Y-76782197D01*
X149277395Y-76969469D01*
X149537737Y-77108625D01*
X149820224Y-77194316D01*
X150114000Y-77223251D01*
X150407777Y-77194316D01*
X150690264Y-77108625D01*
X150950606Y-76969469D01*
X151178797Y-76782197D01*
X151366069Y-76554006D01*
X151384000Y-76520459D01*
X151401931Y-76554006D01*
X151589203Y-76782197D01*
X151817395Y-76969469D01*
X152077737Y-77108625D01*
X152360224Y-77194316D01*
X152654000Y-77223251D01*
X152947777Y-77194316D01*
X153230264Y-77108625D01*
X153490606Y-76969469D01*
X153718797Y-76782197D01*
X153906069Y-76554006D01*
X154045225Y-76293663D01*
X154130916Y-76011176D01*
X154152600Y-75791018D01*
X154152600Y-75338981D01*
X154130916Y-75118823D01*
X154045225Y-74836336D01*
X153906069Y-74575994D01*
X153718797Y-74347803D01*
X153490605Y-74160531D01*
X153230263Y-74021375D01*
X152947776Y-73935684D01*
X152654000Y-73906749D01*
X152360223Y-73935684D01*
X152077736Y-74021375D01*
X151817394Y-74160531D01*
X151589203Y-74347803D01*
X151401931Y-74575995D01*
X151384000Y-74609541D01*
X151366069Y-74575994D01*
X151178797Y-74347803D01*
X150950605Y-74160531D01*
X150690263Y-74021375D01*
X150407776Y-73935684D01*
X150114000Y-73906749D01*
X149820223Y-73935684D01*
X149537736Y-74021375D01*
X149277394Y-74160531D01*
X149049203Y-74347803D01*
X148861931Y-74575995D01*
X148844000Y-74609541D01*
X148826069Y-74575994D01*
X148638797Y-74347803D01*
X148410605Y-74160531D01*
X148150263Y-74021375D01*
X147867776Y-73935684D01*
X147574000Y-73906749D01*
X147280223Y-73935684D01*
X146997736Y-74021375D01*
X146737394Y-74160531D01*
X146509203Y-74347803D01*
X146321931Y-74575995D01*
X146304000Y-74609541D01*
X146286069Y-74575994D01*
X146098797Y-74347803D01*
X145870605Y-74160531D01*
X145610263Y-74021375D01*
X145327776Y-73935684D01*
X145034000Y-73906749D01*
X144740223Y-73935684D01*
X144457736Y-74021375D01*
X144197394Y-74160531D01*
X143969203Y-74347803D01*
X143781931Y-74575995D01*
X143764000Y-74609541D01*
X143746069Y-74575994D01*
X143558797Y-74347803D01*
X143330605Y-74160531D01*
X143070263Y-74021375D01*
X142787776Y-73935684D01*
X142494000Y-73906749D01*
X142200223Y-73935684D01*
X141917736Y-74021375D01*
X141657394Y-74160531D01*
X141429203Y-74347803D01*
X141241931Y-74575995D01*
X141224000Y-74609541D01*
X141206069Y-74575994D01*
X141018797Y-74347803D01*
X140790605Y-74160531D01*
X140530263Y-74021375D01*
X140247776Y-73935684D01*
X139954000Y-73906749D01*
X139660223Y-73935684D01*
X139377736Y-74021375D01*
X139117394Y-74160531D01*
X138889203Y-74347803D01*
X138701931Y-74575995D01*
X138680576Y-74615947D01*
X138532486Y-74413271D01*
X138316035Y-74214267D01*
X138064919Y-74061314D01*
X137788789Y-73960291D01*
X137773026Y-73957642D01*
X137541000Y-74078783D01*
X137541000Y-75438000D01*
X137561000Y-75438000D01*
X137561000Y-75692000D01*
X137541000Y-75692000D01*
X137541000Y-77051217D01*
X137773026Y-77172358D01*
X137788789Y-77169709D01*
X138064919Y-77068686D01*
X138316035Y-76915733D01*
X138532486Y-76716729D01*
X138680576Y-76514053D01*
X138701931Y-76554006D01*
X138889203Y-76782197D01*
X139117395Y-76969469D01*
X139377737Y-77108625D01*
X139660224Y-77194316D01*
X139954000Y-77223251D01*
X140247777Y-77194316D01*
X140530264Y-77108625D01*
X140790606Y-76969469D01*
X141018797Y-76782197D01*
X141206069Y-76554006D01*
X141224000Y-76520459D01*
X141241931Y-76554006D01*
X141429203Y-76782197D01*
X141657395Y-76969469D01*
X141917737Y-77108625D01*
X142200224Y-77194316D01*
X142494000Y-77223251D01*
X142787777Y-77194316D01*
X143070264Y-77108625D01*
X143193860Y-77042561D01*
X142381422Y-77855000D01*
X127611245Y-77855000D01*
X127938113Y-77636594D01*
X128309594Y-77265113D01*
X128601464Y-76828298D01*
X128657001Y-76694219D01*
X128729203Y-76782197D01*
X128957395Y-76969469D01*
X129217737Y-77108625D01*
X129500224Y-77194316D01*
X129794000Y-77223251D01*
X130087777Y-77194316D01*
X130370264Y-77108625D01*
X130630606Y-76969469D01*
X130858797Y-76782197D01*
X131046069Y-76554006D01*
X131064000Y-76520459D01*
X131081931Y-76554006D01*
X131269203Y-76782197D01*
X131497395Y-76969469D01*
X131757737Y-77108625D01*
X132040224Y-77194316D01*
X132334000Y-77223251D01*
X132627777Y-77194316D01*
X132910264Y-77108625D01*
X133170606Y-76969469D01*
X133398797Y-76782197D01*
X133586069Y-76554006D01*
X133604000Y-76520459D01*
X133621931Y-76554006D01*
X133809203Y-76782197D01*
X134037395Y-76969469D01*
X134297737Y-77108625D01*
X134580224Y-77194316D01*
X134874000Y-77223251D01*
X135167777Y-77194316D01*
X135450264Y-77108625D01*
X135710606Y-76969469D01*
X135938797Y-76782197D01*
X136126069Y-76554006D01*
X136147424Y-76514053D01*
X136295514Y-76716729D01*
X136511965Y-76915733D01*
X136763081Y-77068686D01*
X137039211Y-77169709D01*
X137054974Y-77172358D01*
X137287000Y-77051217D01*
X137287000Y-75692000D01*
X137267000Y-75692000D01*
X137267000Y-75438000D01*
X137287000Y-75438000D01*
X137287000Y-74078783D01*
X137054974Y-73957642D01*
X137039211Y-73960291D01*
X136763081Y-74061314D01*
X136511965Y-74214267D01*
X136295514Y-74413271D01*
X136147424Y-74615947D01*
X136126069Y-74575994D01*
X135938797Y-74347803D01*
X135710605Y-74160531D01*
X135450263Y-74021375D01*
X135167776Y-73935684D01*
X134874000Y-73906749D01*
X134580223Y-73935684D01*
X134297736Y-74021375D01*
X134037394Y-74160531D01*
X133809203Y-74347803D01*
X133621931Y-74575995D01*
X133604000Y-74609541D01*
X133586069Y-74575994D01*
X133398797Y-74347803D01*
X133170605Y-74160531D01*
X132910263Y-74021375D01*
X132627776Y-73935684D01*
X132334000Y-73906749D01*
X132040223Y-73935684D01*
X131757736Y-74021375D01*
X131497394Y-74160531D01*
X131269203Y-74347803D01*
X131081931Y-74575995D01*
X131064000Y-74609541D01*
X131046069Y-74575994D01*
X130858797Y-74347803D01*
X130630605Y-74160531D01*
X130370263Y-74021375D01*
X130087776Y-73935684D01*
X129794000Y-73906749D01*
X129500223Y-73935684D01*
X129217736Y-74021375D01*
X128957394Y-74160531D01*
X128729203Y-74347803D01*
X128657001Y-74435781D01*
X128601464Y-74301702D01*
X128309594Y-73864887D01*
X128179707Y-73735000D01*
X175219909Y-73735000D01*
X176328001Y-74843093D01*
X176328000Y-85944125D01*
X176324565Y-85979000D01*
X176328000Y-86013875D01*
X176328000Y-86013876D01*
X176338273Y-86118183D01*
X176378872Y-86252019D01*
X176444800Y-86375362D01*
X176533525Y-86483474D01*
X176560617Y-86505708D01*
X178868001Y-88813093D01*
X178868001Y-88863294D01*
X178738113Y-88733406D01*
X178301298Y-88441536D01*
X177815935Y-88240492D01*
X177300677Y-88138000D01*
X176775323Y-88138000D01*
X176260065Y-88240492D01*
X175774702Y-88441536D01*
X175337887Y-88733406D01*
X174966406Y-89104887D01*
X174674536Y-89541702D01*
X174473492Y-90027065D01*
X174371000Y-90542323D01*
X174371000Y-91067677D01*
X174473492Y-91582935D01*
X174674536Y-92068298D01*
X174966406Y-92505113D01*
X175337887Y-92876594D01*
X175774702Y-93168464D01*
X176260065Y-93369508D01*
X176775323Y-93472000D01*
X177300677Y-93472000D01*
X177815935Y-93369508D01*
X178301298Y-93168464D01*
X178738113Y-92876594D01*
X178868001Y-92746706D01*
X178868000Y-116803293D01*
X178738113Y-116673406D01*
X178301298Y-116381536D01*
X177815935Y-116180492D01*
X177300677Y-116078000D01*
X176775323Y-116078000D01*
X176260065Y-116180492D01*
X175774702Y-116381536D01*
X175337887Y-116673406D01*
X174966406Y-117044887D01*
X174748000Y-117371755D01*
X174748000Y-110768465D01*
X174752281Y-110724999D01*
X174748000Y-110681533D01*
X174748000Y-110681523D01*
X174735195Y-110551510D01*
X174684589Y-110384687D01*
X174602411Y-110230941D01*
X174573172Y-110195313D01*
X174519532Y-110129953D01*
X174519530Y-110129951D01*
X174491817Y-110096183D01*
X174458050Y-110068471D01*
X173597817Y-109208238D01*
X173575130Y-108977898D01*
X173504511Y-108745099D01*
X173389833Y-108530551D01*
X173235502Y-108342498D01*
X173047449Y-108188167D01*
X172832901Y-108073489D01*
X172600102Y-108002870D01*
X172418665Y-107985000D01*
X171497335Y-107985000D01*
X171315898Y-108002870D01*
X171083099Y-108073489D01*
X170868551Y-108188167D01*
X170680498Y-108342498D01*
X170526167Y-108530551D01*
X170411489Y-108745099D01*
X170340870Y-108977898D01*
X170317025Y-109220000D01*
X170340870Y-109462102D01*
X170411489Y-109694901D01*
X170526167Y-109909449D01*
X170680498Y-110097502D01*
X170868551Y-110251833D01*
X171083099Y-110366511D01*
X171315898Y-110437130D01*
X171497335Y-110455000D01*
X172341422Y-110455000D01*
X172411422Y-110525000D01*
X171497335Y-110525000D01*
X171315898Y-110542870D01*
X171083099Y-110613489D01*
X170868551Y-110728167D01*
X170680498Y-110882498D01*
X170526167Y-111070551D01*
X170411489Y-111285099D01*
X170340870Y-111517898D01*
X170317025Y-111760000D01*
X170340870Y-112002102D01*
X170411489Y-112234901D01*
X170526167Y-112449449D01*
X170680498Y-112637502D01*
X170868551Y-112791833D01*
X171073000Y-112901113D01*
X171073001Y-122460246D01*
X170893203Y-122607803D01*
X170705931Y-122835995D01*
X170688000Y-122869541D01*
X170670069Y-122835994D01*
X170482797Y-122607803D01*
X170254605Y-122420531D01*
X169994263Y-122281375D01*
X169711776Y-122195684D01*
X169418000Y-122166749D01*
X169124223Y-122195684D01*
X168841736Y-122281375D01*
X168581394Y-122420531D01*
X168353203Y-122607803D01*
X168165931Y-122835995D01*
X168148000Y-122869541D01*
X168130069Y-122835994D01*
X167942797Y-122607803D01*
X167714605Y-122420531D01*
X167454263Y-122281375D01*
X167171776Y-122195684D01*
X166878000Y-122166749D01*
X166584223Y-122195684D01*
X166301736Y-122281375D01*
X166041394Y-122420531D01*
X165813203Y-122607803D01*
X165625931Y-122835995D01*
X165608000Y-122869541D01*
X165590069Y-122835994D01*
X165402797Y-122607803D01*
X165174605Y-122420531D01*
X164914263Y-122281375D01*
X164631776Y-122195684D01*
X164338000Y-122166749D01*
X164044223Y-122195684D01*
X163761736Y-122281375D01*
X163501394Y-122420531D01*
X163318000Y-122571039D01*
X163318000Y-107814521D01*
X163347759Y-107794637D01*
X163547637Y-107594759D01*
X163704680Y-107359727D01*
X163812853Y-107098574D01*
X163832936Y-106997609D01*
X170364538Y-106997609D01*
X170368409Y-107035282D01*
X170460579Y-107260533D01*
X170594922Y-107463474D01*
X170766275Y-107636307D01*
X170968054Y-107772390D01*
X171192504Y-107866493D01*
X171431000Y-107915000D01*
X171831000Y-107915000D01*
X171831000Y-106807000D01*
X172085000Y-106807000D01*
X172085000Y-107915000D01*
X172485000Y-107915000D01*
X172723496Y-107866493D01*
X172947946Y-107772390D01*
X173149725Y-107636307D01*
X173321078Y-107463474D01*
X173455421Y-107260533D01*
X173547591Y-107035282D01*
X173551462Y-106997609D01*
X173426731Y-106807000D01*
X172085000Y-106807000D01*
X171831000Y-106807000D01*
X170489269Y-106807000D01*
X170364538Y-106997609D01*
X163832936Y-106997609D01*
X163868000Y-106821335D01*
X163868000Y-106538665D01*
X163832937Y-106362391D01*
X170364538Y-106362391D01*
X170489269Y-106553000D01*
X171831000Y-106553000D01*
X171831000Y-105445000D01*
X172085000Y-105445000D01*
X172085000Y-106553000D01*
X173426731Y-106553000D01*
X173551462Y-106362391D01*
X173547591Y-106324718D01*
X173455421Y-106099467D01*
X173321078Y-105896526D01*
X173149725Y-105723693D01*
X172947946Y-105587610D01*
X172723496Y-105493507D01*
X172485000Y-105445000D01*
X172085000Y-105445000D01*
X171831000Y-105445000D01*
X171431000Y-105445000D01*
X171192504Y-105493507D01*
X170968054Y-105587610D01*
X170766275Y-105723693D01*
X170594922Y-105896526D01*
X170460579Y-106099467D01*
X170368409Y-106324718D01*
X170364538Y-106362391D01*
X163832937Y-106362391D01*
X163812853Y-106261426D01*
X163704680Y-106000273D01*
X163547637Y-105765241D01*
X163347759Y-105565363D01*
X163147131Y-105431308D01*
X163174514Y-105416671D01*
X163246097Y-105172702D01*
X162433000Y-104359605D01*
X161619903Y-105172702D01*
X161691486Y-105416671D01*
X161720341Y-105430324D01*
X161518241Y-105565363D01*
X161318363Y-105765241D01*
X161298479Y-105795000D01*
X160398209Y-105795000D01*
X159696792Y-105093584D01*
X159821932Y-104941101D01*
X159955182Y-104691808D01*
X160037236Y-104421309D01*
X160054058Y-104250512D01*
X160992783Y-104250512D01*
X161034213Y-104530130D01*
X161129397Y-104796292D01*
X161196329Y-104921514D01*
X161440298Y-104993097D01*
X162253395Y-104180000D01*
X162612605Y-104180000D01*
X163425702Y-104993097D01*
X163669671Y-104921514D01*
X163790571Y-104666004D01*
X163859300Y-104391816D01*
X163873217Y-104109488D01*
X163831787Y-103829870D01*
X163736603Y-103563708D01*
X163669671Y-103438486D01*
X163425702Y-103366903D01*
X162612605Y-104180000D01*
X162253395Y-104180000D01*
X161440298Y-103366903D01*
X161196329Y-103438486D01*
X161075429Y-103693996D01*
X161006700Y-103968184D01*
X160992783Y-104250512D01*
X160054058Y-104250512D01*
X160064943Y-104140000D01*
X160037236Y-103858691D01*
X159955182Y-103588192D01*
X159821932Y-103338899D01*
X159697517Y-103187298D01*
X161619903Y-103187298D01*
X162433000Y-104000395D01*
X163246097Y-103187298D01*
X163174514Y-102943329D01*
X162919004Y-102822429D01*
X162644816Y-102753700D01*
X162362488Y-102739783D01*
X162082870Y-102781213D01*
X161816708Y-102876397D01*
X161691486Y-102943329D01*
X161619903Y-103187298D01*
X159697517Y-103187298D01*
X159642608Y-103120392D01*
X159424101Y-102941068D01*
X159174808Y-102807818D01*
X158904309Y-102725764D01*
X158693492Y-102705000D01*
X158552508Y-102705000D01*
X158341691Y-102725764D01*
X158071192Y-102807818D01*
X157821899Y-102941068D01*
X157603392Y-103120392D01*
X157424068Y-103338899D01*
X157290818Y-103588192D01*
X157208764Y-103858691D01*
X157181057Y-104140000D01*
X157208764Y-104421309D01*
X157290818Y-104691808D01*
X157424068Y-104941101D01*
X157603392Y-105159608D01*
X157734157Y-105266924D01*
X157733719Y-105271370D01*
X157750805Y-105444860D01*
X157801412Y-105611683D01*
X157883590Y-105765429D01*
X157966468Y-105866416D01*
X157966471Y-105866419D01*
X157994184Y-105900187D01*
X158027951Y-105927899D01*
X159375100Y-107275049D01*
X159402813Y-107308817D01*
X159436581Y-107336530D01*
X159436583Y-107336532D01*
X159537571Y-107419411D01*
X159691316Y-107501589D01*
X159826998Y-107542748D01*
X159858140Y-107552195D01*
X159988153Y-107565000D01*
X159988161Y-107565000D01*
X160031630Y-107569281D01*
X160075099Y-107565000D01*
X161298479Y-107565000D01*
X161318363Y-107594759D01*
X161518241Y-107794637D01*
X161548000Y-107814521D01*
X161548001Y-122191372D01*
X161504223Y-122195684D01*
X161221736Y-122281375D01*
X160961394Y-122420531D01*
X160733203Y-122607803D01*
X160545931Y-122835995D01*
X160406775Y-123096337D01*
X160321084Y-123378824D01*
X160299400Y-123598982D01*
X160299400Y-124051019D01*
X160321084Y-124271177D01*
X160406775Y-124553664D01*
X160545931Y-124814006D01*
X160733203Y-125042197D01*
X160961395Y-125229469D01*
X161221737Y-125368625D01*
X161504224Y-125454316D01*
X161798000Y-125483251D01*
X162091777Y-125454316D01*
X162374264Y-125368625D01*
X162634606Y-125229469D01*
X162862797Y-125042197D01*
X163050069Y-124814006D01*
X163068000Y-124780459D01*
X163085931Y-124814006D01*
X163273203Y-125042197D01*
X163501395Y-125229469D01*
X163761737Y-125368625D01*
X164044224Y-125454316D01*
X164338000Y-125483251D01*
X164631777Y-125454316D01*
X164914264Y-125368625D01*
X165174606Y-125229469D01*
X165402797Y-125042197D01*
X165590069Y-124814006D01*
X165608000Y-124780459D01*
X165625931Y-124814006D01*
X165813203Y-125042197D01*
X166041395Y-125229469D01*
X166301737Y-125368625D01*
X166584224Y-125454316D01*
X166878000Y-125483251D01*
X167171777Y-125454316D01*
X167454264Y-125368625D01*
X167714606Y-125229469D01*
X167942797Y-125042197D01*
X168130069Y-124814006D01*
X168148000Y-124780459D01*
X168165931Y-124814006D01*
X168353203Y-125042197D01*
X168581395Y-125229469D01*
X168841737Y-125368625D01*
X169124224Y-125454316D01*
X169418000Y-125483251D01*
X169711777Y-125454316D01*
X169994264Y-125368625D01*
X170254606Y-125229469D01*
X170482797Y-125042197D01*
X170670069Y-124814006D01*
X170688000Y-124780459D01*
X170705931Y-124814006D01*
X170893203Y-125042197D01*
X171121395Y-125229469D01*
X171381737Y-125368625D01*
X171664224Y-125454316D01*
X171958000Y-125483251D01*
X172251777Y-125454316D01*
X172534264Y-125368625D01*
X172794606Y-125229469D01*
X173022797Y-125042197D01*
X173210069Y-124814006D01*
X173228000Y-124780459D01*
X173245931Y-124814006D01*
X173433203Y-125042197D01*
X173661395Y-125229469D01*
X173921737Y-125368625D01*
X174204224Y-125454316D01*
X174498000Y-125483251D01*
X174791777Y-125454316D01*
X175074264Y-125368625D01*
X175334606Y-125229469D01*
X175562797Y-125042197D01*
X175750069Y-124814006D01*
X175889225Y-124553663D01*
X175974916Y-124271176D01*
X175996600Y-124051018D01*
X175996600Y-123598981D01*
X175974916Y-123378823D01*
X175889225Y-123096336D01*
X175750069Y-122835994D01*
X175562797Y-122607803D01*
X175383000Y-122460248D01*
X175383000Y-121963469D01*
X175387281Y-121920000D01*
X175383000Y-121876531D01*
X175383000Y-121876523D01*
X175370195Y-121746510D01*
X175333430Y-121625313D01*
X175319589Y-121579686D01*
X175237411Y-121425941D01*
X175154532Y-121324953D01*
X175154530Y-121324951D01*
X175126817Y-121291183D01*
X175093050Y-121263471D01*
X174748000Y-120918422D01*
X174748000Y-120118245D01*
X174966406Y-120445113D01*
X175337887Y-120816594D01*
X175774702Y-121108464D01*
X176260065Y-121309508D01*
X176775323Y-121412000D01*
X177300677Y-121412000D01*
X177815935Y-121309508D01*
X178301298Y-121108464D01*
X178738113Y-120816594D01*
X178868000Y-120686707D01*
X178868000Y-120990908D01*
X176560617Y-123298292D01*
X176533526Y-123320525D01*
X176511293Y-123347616D01*
X176444801Y-123428637D01*
X176378872Y-123551981D01*
X176338274Y-123685816D01*
X176324565Y-123825000D01*
X176328001Y-123859885D01*
X176328000Y-125655000D01*
X126909707Y-125655000D01*
X127039594Y-125525113D01*
X127331464Y-125088298D01*
X127532508Y-124602935D01*
X127635000Y-124087677D01*
X127635000Y-123562323D01*
X127532508Y-123047065D01*
X127331464Y-122561702D01*
X127039594Y-122124887D01*
X126668113Y-121753406D01*
X126231298Y-121461536D01*
X125745935Y-121260492D01*
X125230677Y-121158000D01*
X124705323Y-121158000D01*
X124190065Y-121260492D01*
X123704702Y-121461536D01*
X123267887Y-121753406D01*
X122896406Y-122124887D01*
X122604536Y-122561702D01*
X122403492Y-123047065D01*
X122301000Y-123562323D01*
X122301000Y-124087677D01*
X122403492Y-124602935D01*
X122604536Y-125088298D01*
X122896406Y-125525113D01*
X123026293Y-125655000D01*
X111708000Y-125655000D01*
X111708000Y-118745000D01*
X112096057Y-118745000D01*
X112123764Y-119026309D01*
X112205818Y-119296808D01*
X112339068Y-119546101D01*
X112518392Y-119764608D01*
X112736899Y-119943932D01*
X112986192Y-120077182D01*
X113256691Y-120159236D01*
X113467508Y-120180000D01*
X113608492Y-120180000D01*
X113819309Y-120159236D01*
X114089808Y-120077182D01*
X114339101Y-119943932D01*
X114557608Y-119764608D01*
X114736932Y-119546101D01*
X114870182Y-119296808D01*
X114952236Y-119026309D01*
X114979943Y-118745000D01*
X114962875Y-118571704D01*
X117819834Y-115714744D01*
X117921665Y-115735000D01*
X118204335Y-115735000D01*
X118481574Y-115679853D01*
X118742727Y-115571680D01*
X118977759Y-115414637D01*
X119177637Y-115214759D01*
X119334680Y-114979727D01*
X119442853Y-114718574D01*
X119498000Y-114441335D01*
X119498000Y-114158665D01*
X119491017Y-114123561D01*
X122874579Y-110740000D01*
X125738479Y-110740000D01*
X125758363Y-110769759D01*
X125958241Y-110969637D01*
X126193273Y-111126680D01*
X126454426Y-111234853D01*
X126731665Y-111290000D01*
X127014335Y-111290000D01*
X127044424Y-111284015D01*
X127077950Y-111311529D01*
X127077952Y-111311531D01*
X127129478Y-111353817D01*
X127178940Y-111394410D01*
X127332686Y-111476588D01*
X127499509Y-111527194D01*
X127629522Y-111539999D01*
X127629532Y-111539999D01*
X127672998Y-111544280D01*
X127716464Y-111539999D01*
X131744532Y-111539999D01*
X131788001Y-111544280D01*
X131831470Y-111539999D01*
X131831478Y-111539999D01*
X131961491Y-111527194D01*
X132128314Y-111476588D01*
X132185285Y-111446137D01*
X130216422Y-113415000D01*
X124197521Y-113415000D01*
X124177637Y-113385241D01*
X123977759Y-113185363D01*
X123742727Y-113028320D01*
X123481574Y-112920147D01*
X123204335Y-112865000D01*
X122921665Y-112865000D01*
X122644426Y-112920147D01*
X122383273Y-113028320D01*
X122148241Y-113185363D01*
X121948363Y-113385241D01*
X121791320Y-113620273D01*
X121683147Y-113881426D01*
X121628000Y-114158665D01*
X121628000Y-114441335D01*
X121683147Y-114718574D01*
X121791320Y-114979727D01*
X121948363Y-115214759D01*
X122148241Y-115414637D01*
X122383273Y-115571680D01*
X122644426Y-115679853D01*
X122921665Y-115735000D01*
X123204335Y-115735000D01*
X123239439Y-115728017D01*
X125232513Y-117721091D01*
X125123363Y-117830241D01*
X124966320Y-118065273D01*
X124858147Y-118326426D01*
X124803000Y-118603665D01*
X124803000Y-118886335D01*
X124858147Y-119163574D01*
X124966320Y-119424727D01*
X125123363Y-119659759D01*
X125323241Y-119859637D01*
X125558273Y-120016680D01*
X125819426Y-120124853D01*
X126096665Y-120180000D01*
X126379335Y-120180000D01*
X126656574Y-120124853D01*
X126917727Y-120016680D01*
X127152759Y-119859637D01*
X127352637Y-119659759D01*
X127509680Y-119424727D01*
X127617853Y-119163574D01*
X127673000Y-118886335D01*
X127673000Y-118603665D01*
X127617853Y-118326426D01*
X127509680Y-118065273D01*
X127352637Y-117830241D01*
X127152759Y-117630363D01*
X127123000Y-117610479D01*
X127123000Y-117518466D01*
X127127281Y-117474999D01*
X127123000Y-117431533D01*
X127123000Y-117431523D01*
X127110195Y-117301510D01*
X127059589Y-117134687D01*
X126977411Y-116980941D01*
X126866817Y-116846183D01*
X126833049Y-116818470D01*
X125199578Y-115185000D01*
X130539531Y-115185000D01*
X130583000Y-115189281D01*
X130626469Y-115185000D01*
X130626477Y-115185000D01*
X130756490Y-115172195D01*
X130923313Y-115121589D01*
X131077059Y-115039411D01*
X131211817Y-114928817D01*
X131239534Y-114895044D01*
X137233784Y-108900795D01*
X137265832Y-109061912D01*
X137389082Y-109359463D01*
X137568013Y-109627252D01*
X137795748Y-109854987D01*
X138063537Y-110033918D01*
X138361088Y-110157168D01*
X138676967Y-110220000D01*
X138999033Y-110220000D01*
X139314912Y-110157168D01*
X139612463Y-110033918D01*
X139880252Y-109854987D01*
X140107987Y-109627252D01*
X140286918Y-109359463D01*
X140410168Y-109061912D01*
X140473000Y-108746033D01*
X140473000Y-108423967D01*
X140410168Y-108108088D01*
X140286918Y-107810537D01*
X140107987Y-107542748D01*
X139880252Y-107315013D01*
X139880233Y-107315000D01*
X139880252Y-107314987D01*
X140107987Y-107087252D01*
X140213059Y-106930000D01*
X143974531Y-106930000D01*
X144018000Y-106934281D01*
X144061469Y-106930000D01*
X144061477Y-106930000D01*
X144191490Y-106917195D01*
X144358313Y-106866589D01*
X144512059Y-106784411D01*
X144646817Y-106673817D01*
X144674534Y-106640044D01*
X145746561Y-105568017D01*
X145781665Y-105575000D01*
X146064335Y-105575000D01*
X146341574Y-105519853D01*
X146602727Y-105411680D01*
X146837759Y-105254637D01*
X147037637Y-105054759D01*
X147194680Y-104819727D01*
X147302853Y-104558574D01*
X147358000Y-104281335D01*
X147358000Y-103998665D01*
X147302853Y-103721426D01*
X147194680Y-103460273D01*
X147037637Y-103225241D01*
X146837759Y-103025363D01*
X146602727Y-102868320D01*
X146341574Y-102760147D01*
X146064335Y-102705000D01*
X145781665Y-102705000D01*
X145504426Y-102760147D01*
X145243273Y-102868320D01*
X145008241Y-103025363D01*
X144808363Y-103225241D01*
X144651320Y-103460273D01*
X144543147Y-103721426D01*
X144488000Y-103998665D01*
X144488000Y-104281335D01*
X144494983Y-104316439D01*
X143651422Y-105160000D01*
X140213059Y-105160000D01*
X140107987Y-105002748D01*
X139880252Y-104775013D01*
X139880233Y-104775000D01*
X139880252Y-104774987D01*
X140107987Y-104547252D01*
X140286918Y-104279463D01*
X140410168Y-103981912D01*
X140473000Y-103666033D01*
X140473000Y-103343967D01*
X140436103Y-103158475D01*
X143014579Y-100580000D01*
X144788479Y-100580000D01*
X144808363Y-100609759D01*
X145008241Y-100809637D01*
X145243273Y-100966680D01*
X145504426Y-101074853D01*
X145781665Y-101130000D01*
X146064335Y-101130000D01*
X146099438Y-101123017D01*
X146127952Y-101151531D01*
X146127957Y-101151535D01*
X148213001Y-103236580D01*
X148213000Y-122460247D01*
X148033203Y-122607803D01*
X147845931Y-122835995D01*
X147828000Y-122869541D01*
X147810069Y-122835994D01*
X147622797Y-122607803D01*
X147394605Y-122420531D01*
X147134263Y-122281375D01*
X146851776Y-122195684D01*
X146558000Y-122166749D01*
X146264223Y-122195684D01*
X145981736Y-122281375D01*
X145721394Y-122420531D01*
X145493203Y-122607803D01*
X145305931Y-122835995D01*
X145288000Y-122869541D01*
X145270069Y-122835994D01*
X145082797Y-122607803D01*
X144854605Y-122420531D01*
X144594263Y-122281375D01*
X144311776Y-122195684D01*
X144018000Y-122166749D01*
X143724223Y-122195684D01*
X143441736Y-122281375D01*
X143181394Y-122420531D01*
X142953203Y-122607803D01*
X142765931Y-122835995D01*
X142748000Y-122869541D01*
X142730069Y-122835994D01*
X142542797Y-122607803D01*
X142314605Y-122420531D01*
X142054263Y-122281375D01*
X141771776Y-122195684D01*
X141478000Y-122166749D01*
X141184223Y-122195684D01*
X140901736Y-122281375D01*
X140641394Y-122420531D01*
X140413203Y-122607803D01*
X140225931Y-122835995D01*
X140208000Y-122869541D01*
X140190069Y-122835994D01*
X140002797Y-122607803D01*
X139774605Y-122420531D01*
X139514263Y-122281375D01*
X139231776Y-122195684D01*
X138938000Y-122166749D01*
X138644223Y-122195684D01*
X138361736Y-122281375D01*
X138101394Y-122420531D01*
X137873203Y-122607803D01*
X137685931Y-122835995D01*
X137546775Y-123096337D01*
X137461084Y-123378824D01*
X137439400Y-123598982D01*
X137439400Y-124051019D01*
X137461084Y-124271177D01*
X137546775Y-124553664D01*
X137685931Y-124814006D01*
X137873203Y-125042197D01*
X138101395Y-125229469D01*
X138361737Y-125368625D01*
X138644224Y-125454316D01*
X138938000Y-125483251D01*
X139231777Y-125454316D01*
X139514264Y-125368625D01*
X139774606Y-125229469D01*
X140002797Y-125042197D01*
X140190069Y-124814006D01*
X140208000Y-124780459D01*
X140225931Y-124814006D01*
X140413203Y-125042197D01*
X140641395Y-125229469D01*
X140901737Y-125368625D01*
X141184224Y-125454316D01*
X141478000Y-125483251D01*
X141771777Y-125454316D01*
X142054264Y-125368625D01*
X142314606Y-125229469D01*
X142542797Y-125042197D01*
X142730069Y-124814006D01*
X142748000Y-124780459D01*
X142765931Y-124814006D01*
X142953203Y-125042197D01*
X143181395Y-125229469D01*
X143441737Y-125368625D01*
X143724224Y-125454316D01*
X144018000Y-125483251D01*
X144311777Y-125454316D01*
X144594264Y-125368625D01*
X144854606Y-125229469D01*
X145082797Y-125042197D01*
X145270069Y-124814006D01*
X145288000Y-124780459D01*
X145305931Y-124814006D01*
X145493203Y-125042197D01*
X145721395Y-125229469D01*
X145981737Y-125368625D01*
X146264224Y-125454316D01*
X146558000Y-125483251D01*
X146851777Y-125454316D01*
X147134264Y-125368625D01*
X147394606Y-125229469D01*
X147622797Y-125042197D01*
X147810069Y-124814006D01*
X147828000Y-124780459D01*
X147845931Y-124814006D01*
X148033203Y-125042197D01*
X148261395Y-125229469D01*
X148521737Y-125368625D01*
X148804224Y-125454316D01*
X149098000Y-125483251D01*
X149391777Y-125454316D01*
X149674264Y-125368625D01*
X149934606Y-125229469D01*
X150162797Y-125042197D01*
X150350069Y-124814006D01*
X150371424Y-124774053D01*
X150519514Y-124976729D01*
X150735965Y-125175733D01*
X150987081Y-125328686D01*
X151263211Y-125429709D01*
X151278974Y-125432358D01*
X151511000Y-125311217D01*
X151511000Y-123952000D01*
X151765000Y-123952000D01*
X151765000Y-125311217D01*
X151997026Y-125432358D01*
X152012789Y-125429709D01*
X152288919Y-125328686D01*
X152540035Y-125175733D01*
X152756486Y-124976729D01*
X152908000Y-124769367D01*
X153059514Y-124976729D01*
X153275965Y-125175733D01*
X153527081Y-125328686D01*
X153803211Y-125429709D01*
X153818974Y-125432358D01*
X154051000Y-125311217D01*
X154051000Y-123952000D01*
X151765000Y-123952000D01*
X151511000Y-123952000D01*
X151491000Y-123952000D01*
X151491000Y-123698000D01*
X151511000Y-123698000D01*
X151511000Y-122338783D01*
X151765000Y-122338783D01*
X151765000Y-123698000D01*
X154051000Y-123698000D01*
X154051000Y-122338783D01*
X154305000Y-122338783D01*
X154305000Y-123698000D01*
X154325000Y-123698000D01*
X154325000Y-123952000D01*
X154305000Y-123952000D01*
X154305000Y-125311217D01*
X154537026Y-125432358D01*
X154552789Y-125429709D01*
X154828919Y-125328686D01*
X155080035Y-125175733D01*
X155296486Y-124976729D01*
X155444576Y-124774053D01*
X155465931Y-124814006D01*
X155653203Y-125042197D01*
X155881395Y-125229469D01*
X156141737Y-125368625D01*
X156424224Y-125454316D01*
X156718000Y-125483251D01*
X157011777Y-125454316D01*
X157294264Y-125368625D01*
X157554606Y-125229469D01*
X157782797Y-125042197D01*
X157970069Y-124814006D01*
X158109225Y-124553663D01*
X158194916Y-124271176D01*
X158216600Y-124051018D01*
X158216600Y-123598981D01*
X158194916Y-123378823D01*
X158109225Y-123096336D01*
X157970069Y-122835994D01*
X157782797Y-122607803D01*
X157554605Y-122420531D01*
X157294263Y-122281375D01*
X157011776Y-122195684D01*
X156718000Y-122166749D01*
X156424223Y-122195684D01*
X156141736Y-122281375D01*
X155881394Y-122420531D01*
X155653203Y-122607803D01*
X155465931Y-122835995D01*
X155444576Y-122875947D01*
X155296486Y-122673271D01*
X155080035Y-122474267D01*
X154828919Y-122321314D01*
X154552789Y-122220291D01*
X154537026Y-122217642D01*
X154305000Y-122338783D01*
X154051000Y-122338783D01*
X153818974Y-122217642D01*
X153803211Y-122220291D01*
X153527081Y-122321314D01*
X153275965Y-122474267D01*
X153059514Y-122673271D01*
X152908000Y-122880633D01*
X152756486Y-122673271D01*
X152540035Y-122474267D01*
X152288919Y-122321314D01*
X152012789Y-122220291D01*
X151997026Y-122217642D01*
X151765000Y-122338783D01*
X151511000Y-122338783D01*
X151278974Y-122217642D01*
X151263211Y-122220291D01*
X150987081Y-122321314D01*
X150735965Y-122474267D01*
X150519514Y-122673271D01*
X150371424Y-122875947D01*
X150350069Y-122835994D01*
X150162797Y-122607803D01*
X149983000Y-122460248D01*
X149983000Y-102913469D01*
X149987281Y-102870000D01*
X149983000Y-102826531D01*
X149983000Y-93711578D01*
X150484165Y-93210413D01*
X160842192Y-93210413D01*
X160937956Y-93474814D01*
X161227571Y-93615704D01*
X161539108Y-93697384D01*
X161860595Y-93716718D01*
X162179675Y-93672961D01*
X162484088Y-93567795D01*
X162658044Y-93474814D01*
X162753808Y-93210413D01*
X161798000Y-92254605D01*
X160842192Y-93210413D01*
X150484165Y-93210413D01*
X151556983Y-92137595D01*
X160156282Y-92137595D01*
X160200039Y-92456675D01*
X160305205Y-92761088D01*
X160398186Y-92935044D01*
X160662587Y-93030808D01*
X161618395Y-92075000D01*
X160662587Y-91119192D01*
X160398186Y-91214956D01*
X160257296Y-91504571D01*
X160175616Y-91816108D01*
X160156282Y-92137595D01*
X151556983Y-92137595D01*
X153274579Y-90420000D01*
X160422941Y-90420000D01*
X160528013Y-90577252D01*
X160755748Y-90804987D01*
X160864600Y-90877720D01*
X160842192Y-90939587D01*
X161798000Y-91895395D01*
X161812143Y-91881253D01*
X161991748Y-92060858D01*
X161977605Y-92075000D01*
X162933413Y-93030808D01*
X163197814Y-92935044D01*
X163338704Y-92645429D01*
X163404790Y-92393368D01*
X171073000Y-100061579D01*
X171073001Y-102998887D01*
X170868551Y-103108167D01*
X170680498Y-103262498D01*
X170526167Y-103450551D01*
X170411489Y-103665099D01*
X170340870Y-103897898D01*
X170317025Y-104140000D01*
X170340870Y-104382102D01*
X170411489Y-104614901D01*
X170526167Y-104829449D01*
X170680498Y-105017502D01*
X170868551Y-105171833D01*
X171083099Y-105286511D01*
X171315898Y-105357130D01*
X171497335Y-105375000D01*
X172418665Y-105375000D01*
X172600102Y-105357130D01*
X172832901Y-105286511D01*
X173047449Y-105171833D01*
X173235502Y-105017502D01*
X173389833Y-104829449D01*
X173504511Y-104614901D01*
X173575130Y-104382102D01*
X173598975Y-104140000D01*
X173575130Y-103897898D01*
X173504511Y-103665099D01*
X173389833Y-103450551D01*
X173235502Y-103262498D01*
X173047449Y-103108167D01*
X172843000Y-102998887D01*
X172843000Y-99738469D01*
X172847281Y-99695000D01*
X172843000Y-99651531D01*
X172843000Y-99651523D01*
X172830195Y-99521510D01*
X172779589Y-99354687D01*
X172697411Y-99200941D01*
X172586817Y-99066183D01*
X172553051Y-99038472D01*
X163396103Y-89881525D01*
X163433000Y-89696033D01*
X163433000Y-89373967D01*
X163370168Y-89058088D01*
X163246918Y-88760537D01*
X163067987Y-88492748D01*
X162840252Y-88265013D01*
X162840233Y-88265000D01*
X162840252Y-88264987D01*
X163067987Y-88037252D01*
X163246918Y-87769463D01*
X163370168Y-87471912D01*
X163433000Y-87156033D01*
X163433000Y-86833967D01*
X163370168Y-86518088D01*
X163246918Y-86220537D01*
X163067987Y-85952748D01*
X162840252Y-85725013D01*
X162840233Y-85725000D01*
X162840252Y-85724987D01*
X163067987Y-85497252D01*
X163246918Y-85229463D01*
X163370168Y-84931912D01*
X163433000Y-84616033D01*
X163433000Y-84293967D01*
X163370168Y-83978088D01*
X163246918Y-83680537D01*
X163067987Y-83412748D01*
X162840252Y-83185013D01*
X162840233Y-83185000D01*
X162840252Y-83184987D01*
X163067987Y-82957252D01*
X163173059Y-82800000D01*
X163176931Y-82800000D01*
X163220400Y-82804281D01*
X163263869Y-82800000D01*
X163263877Y-82800000D01*
X163393890Y-82787195D01*
X163560713Y-82736589D01*
X163714459Y-82654411D01*
X163849217Y-82543817D01*
X163876934Y-82510044D01*
X167610732Y-78776247D01*
X167610736Y-78776242D01*
X169186526Y-77200452D01*
X169418000Y-77223251D01*
X169711777Y-77194316D01*
X169994264Y-77108625D01*
X170254606Y-76969469D01*
X170482797Y-76782197D01*
X170670069Y-76554006D01*
X170688000Y-76520459D01*
X170705931Y-76554006D01*
X170893203Y-76782197D01*
X171121395Y-76969469D01*
X171381737Y-77108625D01*
X171664224Y-77194316D01*
X171958000Y-77223251D01*
X172251777Y-77194316D01*
X172534264Y-77108625D01*
X172794606Y-76969469D01*
X173022797Y-76782197D01*
X173210069Y-76554006D01*
X173228000Y-76520459D01*
X173245931Y-76554006D01*
X173433203Y-76782197D01*
X173661395Y-76969469D01*
X173921737Y-77108625D01*
X174204224Y-77194316D01*
X174498000Y-77223251D01*
X174791777Y-77194316D01*
X175074264Y-77108625D01*
X175334606Y-76969469D01*
X175562797Y-76782197D01*
X175750069Y-76554006D01*
X175889225Y-76293663D01*
X175974916Y-76011176D01*
X175996600Y-75791018D01*
X175996600Y-75338981D01*
X175974916Y-75118823D01*
X175889225Y-74836336D01*
X175750069Y-74575994D01*
X175562797Y-74347803D01*
X175334605Y-74160531D01*
X175074263Y-74021375D01*
X174791776Y-73935684D01*
X174498000Y-73906749D01*
X174204223Y-73935684D01*
X173921736Y-74021375D01*
X173661394Y-74160531D01*
X173433203Y-74347803D01*
X173245931Y-74575995D01*
X173228000Y-74609541D01*
X173210069Y-74575994D01*
X173022797Y-74347803D01*
X172794605Y-74160531D01*
X172534263Y-74021375D01*
X172251776Y-73935684D01*
X171958000Y-73906749D01*
X171664223Y-73935684D01*
X171381736Y-74021375D01*
X171121394Y-74160531D01*
X170893203Y-74347803D01*
X170705931Y-74575995D01*
X170688000Y-74609541D01*
X170670069Y-74575994D01*
X170482797Y-74347803D01*
X170254605Y-74160531D01*
X169994263Y-74021375D01*
X169711776Y-73935684D01*
X169418000Y-73906749D01*
X169124223Y-73935684D01*
X168841736Y-74021375D01*
X168581394Y-74160531D01*
X168353203Y-74347803D01*
X168165931Y-74575995D01*
X168148000Y-74609541D01*
X168130069Y-74575994D01*
X167942797Y-74347803D01*
X167714605Y-74160531D01*
X167454263Y-74021375D01*
X167171776Y-73935684D01*
X166878000Y-73906749D01*
X166584223Y-73935684D01*
X166301736Y-74021375D01*
X166041394Y-74160531D01*
X165813203Y-74347803D01*
X165625931Y-74575995D01*
X165608000Y-74609541D01*
X165590069Y-74575994D01*
X165402797Y-74347803D01*
X165174605Y-74160531D01*
X164914263Y-74021375D01*
X164631776Y-73935684D01*
X164338000Y-73906749D01*
X164044223Y-73935684D01*
X163761736Y-74021375D01*
X163501394Y-74160531D01*
X163273203Y-74347803D01*
X163085931Y-74575995D01*
X163068000Y-74609541D01*
X163050069Y-74575994D01*
X162862797Y-74347803D01*
X162634605Y-74160531D01*
X162374263Y-74021375D01*
X162091776Y-73935684D01*
X161798000Y-73906749D01*
X161504223Y-73935684D01*
X161221736Y-74021375D01*
X160961394Y-74160531D01*
X160733203Y-74347803D01*
X160545931Y-74575995D01*
X160528000Y-74609541D01*
X160510069Y-74575994D01*
X160322797Y-74347803D01*
X160094605Y-74160531D01*
X159834263Y-74021375D01*
X159551776Y-73935684D01*
X159258000Y-73906749D01*
X158964223Y-73935684D01*
X158681736Y-74021375D01*
X158421394Y-74160531D01*
X158193203Y-74347803D01*
X158005931Y-74575995D01*
X157988000Y-74609541D01*
X157970069Y-74575994D01*
X157782797Y-74347803D01*
X157554605Y-74160531D01*
X157294263Y-74021375D01*
X157011776Y-73935684D01*
X156718000Y-73906749D01*
X156424223Y-73935684D01*
X156141736Y-74021375D01*
X155881394Y-74160531D01*
X155653203Y-74347803D01*
X155465931Y-74575995D01*
X155326775Y-74836337D01*
X155241084Y-75118824D01*
X155219400Y-75338982D01*
X155219400Y-75791019D01*
X155241084Y-76011177D01*
X155326775Y-76293664D01*
X155465931Y-76554006D01*
X155592811Y-76708610D01*
X153582951Y-78718471D01*
X153549184Y-78746183D01*
X153521471Y-78779951D01*
X153521468Y-78779954D01*
X153438590Y-78880941D01*
X153356412Y-79034687D01*
X153305805Y-79201510D01*
X153288719Y-79375000D01*
X153293001Y-79418479D01*
X153293000Y-85046531D01*
X153288719Y-85090000D01*
X153293000Y-85133469D01*
X153293000Y-85133476D01*
X153302454Y-85229463D01*
X153305805Y-85263490D01*
X153309779Y-85276589D01*
X153356411Y-85430312D01*
X153438589Y-85584058D01*
X153549183Y-85718817D01*
X153582956Y-85746534D01*
X155426470Y-87590049D01*
X155454183Y-87623817D01*
X155487951Y-87651530D01*
X155487953Y-87651532D01*
X155588941Y-87734411D01*
X155742687Y-87816589D01*
X155909510Y-87867195D01*
X156039523Y-87880000D01*
X156039531Y-87880000D01*
X156083000Y-87884281D01*
X156126469Y-87880000D01*
X160422941Y-87880000D01*
X160528013Y-88037252D01*
X160755748Y-88264987D01*
X160755767Y-88265000D01*
X160755748Y-88265013D01*
X160528013Y-88492748D01*
X160422941Y-88650000D01*
X152951469Y-88650000D01*
X152908000Y-88645719D01*
X152864531Y-88650000D01*
X127240975Y-88650000D01*
X127123000Y-88532025D01*
X127123000Y-85195059D01*
X127280252Y-85089987D01*
X127507987Y-84862252D01*
X127686918Y-84594463D01*
X127810168Y-84296912D01*
X127873000Y-83981033D01*
X127873000Y-83658967D01*
X127810168Y-83343088D01*
X127686918Y-83045537D01*
X127507987Y-82777748D01*
X127280252Y-82550013D01*
X127012463Y-82371082D01*
X126714912Y-82247832D01*
X126399033Y-82185000D01*
X126076967Y-82185000D01*
X125761088Y-82247832D01*
X125463537Y-82371082D01*
X125195748Y-82550013D01*
X124968013Y-82777748D01*
X124895280Y-82886600D01*
X124833413Y-82864192D01*
X123877605Y-83820000D01*
X124833413Y-84775808D01*
X124895280Y-84753400D01*
X124968013Y-84862252D01*
X125195748Y-85089987D01*
X125353000Y-85195059D01*
X125353001Y-88532024D01*
X125201038Y-88683987D01*
X125054939Y-88902641D01*
X124966220Y-89116828D01*
X124937347Y-89021646D01*
X124813382Y-88789725D01*
X124646555Y-88586445D01*
X124443275Y-88419618D01*
X124211354Y-88295653D01*
X123959706Y-88219317D01*
X123763579Y-88200000D01*
X123632421Y-88200000D01*
X123436294Y-88219317D01*
X123184646Y-88295653D01*
X122952725Y-88419618D01*
X122749445Y-88586445D01*
X122582618Y-88789725D01*
X122458653Y-89021646D01*
X122382317Y-89273294D01*
X122356541Y-89535000D01*
X122382317Y-89796706D01*
X122458653Y-90048354D01*
X122582618Y-90280275D01*
X122749445Y-90483555D01*
X122813000Y-90535713D01*
X122813001Y-92666521D01*
X122808719Y-92710000D01*
X122825805Y-92883490D01*
X122876412Y-93050313D01*
X122958590Y-93204059D01*
X123041468Y-93305046D01*
X123041471Y-93305049D01*
X123069184Y-93338817D01*
X123102951Y-93366529D01*
X125988000Y-96251579D01*
X125988001Y-97290478D01*
X125958241Y-97310363D01*
X125758363Y-97510241D01*
X125601320Y-97745273D01*
X125493147Y-98006426D01*
X125438000Y-98283665D01*
X125438000Y-98566335D01*
X125493147Y-98843574D01*
X125601320Y-99104727D01*
X125758363Y-99339759D01*
X125958241Y-99539637D01*
X126193273Y-99696680D01*
X126454426Y-99804853D01*
X126731665Y-99860000D01*
X127014335Y-99860000D01*
X127291574Y-99804853D01*
X127552727Y-99696680D01*
X127787759Y-99539637D01*
X127987637Y-99339759D01*
X128144680Y-99104727D01*
X128252853Y-98843574D01*
X128308000Y-98566335D01*
X128308000Y-98283665D01*
X128252853Y-98006426D01*
X128144680Y-97745273D01*
X127987637Y-97510241D01*
X127787759Y-97310363D01*
X127758000Y-97290479D01*
X127758000Y-97265512D01*
X144482783Y-97265512D01*
X144524213Y-97545130D01*
X144619397Y-97811292D01*
X144686329Y-97936514D01*
X144930298Y-98008097D01*
X145743395Y-97195000D01*
X146102605Y-97195000D01*
X146915702Y-98008097D01*
X147159671Y-97936514D01*
X147280571Y-97681004D01*
X147349300Y-97406816D01*
X147363217Y-97124488D01*
X147321787Y-96844870D01*
X147226603Y-96578708D01*
X147159671Y-96453486D01*
X146915702Y-96381903D01*
X146102605Y-97195000D01*
X145743395Y-97195000D01*
X144930298Y-96381903D01*
X144686329Y-96453486D01*
X144565429Y-96708996D01*
X144496700Y-96983184D01*
X144482783Y-97265512D01*
X127758000Y-97265512D01*
X127758000Y-96202298D01*
X145109903Y-96202298D01*
X145923000Y-97015395D01*
X146736097Y-96202298D01*
X146664514Y-95958329D01*
X146409004Y-95837429D01*
X146134816Y-95768700D01*
X145852488Y-95754783D01*
X145572870Y-95796213D01*
X145306708Y-95891397D01*
X145181486Y-95958329D01*
X145109903Y-96202298D01*
X127758000Y-96202298D01*
X127758000Y-95928466D01*
X127762281Y-95884999D01*
X127758000Y-95841533D01*
X127758000Y-95841523D01*
X127745195Y-95711510D01*
X127694589Y-95544687D01*
X127612411Y-95390941D01*
X127501817Y-95256183D01*
X127468050Y-95228471D01*
X124583000Y-92343422D01*
X124583000Y-90535713D01*
X124646555Y-90483555D01*
X124813382Y-90280275D01*
X124937347Y-90048354D01*
X124966220Y-89953172D01*
X125054939Y-90167359D01*
X125201038Y-90386013D01*
X125386987Y-90571962D01*
X125605641Y-90718061D01*
X125848595Y-90818696D01*
X126106514Y-90870000D01*
X126369486Y-90870000D01*
X126627405Y-90818696D01*
X126870359Y-90718061D01*
X127089013Y-90571962D01*
X127240975Y-90420000D01*
X150771421Y-90420000D01*
X148502951Y-92688470D01*
X148469184Y-92716183D01*
X148441471Y-92749951D01*
X148441468Y-92749954D01*
X148358590Y-92850941D01*
X148276412Y-93004687D01*
X148225805Y-93171510D01*
X148208719Y-93345000D01*
X148213001Y-93388479D01*
X148213000Y-100733422D01*
X147379535Y-99899957D01*
X147379531Y-99899952D01*
X147351017Y-99871438D01*
X147358000Y-99836335D01*
X147358000Y-99553665D01*
X147302853Y-99276426D01*
X147194680Y-99015273D01*
X147037637Y-98780241D01*
X146837759Y-98580363D01*
X146637131Y-98446308D01*
X146664514Y-98431671D01*
X146736097Y-98187702D01*
X145923000Y-97374605D01*
X145109903Y-98187702D01*
X145181486Y-98431671D01*
X145210341Y-98445324D01*
X145008241Y-98580363D01*
X144808363Y-98780241D01*
X144788479Y-98810000D01*
X142691469Y-98810000D01*
X142648000Y-98805719D01*
X142604531Y-98810000D01*
X142604523Y-98810000D01*
X142474510Y-98822805D01*
X142307686Y-98873411D01*
X142153941Y-98955589D01*
X142052953Y-99038468D01*
X142052951Y-99038470D01*
X142019183Y-99066183D01*
X141991470Y-99099951D01*
X140442216Y-100649205D01*
X140410168Y-100488088D01*
X140286918Y-100190537D01*
X140107987Y-99922748D01*
X139880252Y-99695013D01*
X139612463Y-99516082D01*
X139314912Y-99392832D01*
X138999033Y-99330000D01*
X138676967Y-99330000D01*
X138361088Y-99392832D01*
X138063537Y-99516082D01*
X137795748Y-99695013D01*
X137568013Y-99922748D01*
X137389082Y-100190537D01*
X137265832Y-100488088D01*
X137203000Y-100803967D01*
X137203000Y-101126033D01*
X137265832Y-101441912D01*
X137389082Y-101739463D01*
X137568013Y-102007252D01*
X137795748Y-102234987D01*
X137795767Y-102235000D01*
X137795748Y-102235013D01*
X137568013Y-102462748D01*
X137389082Y-102730537D01*
X137265832Y-103028088D01*
X137203000Y-103343967D01*
X137203000Y-103666033D01*
X137265832Y-103981912D01*
X137389082Y-104279463D01*
X137568013Y-104547252D01*
X137795748Y-104774987D01*
X137795767Y-104775000D01*
X137795748Y-104775013D01*
X137568013Y-105002748D01*
X137389082Y-105270537D01*
X137265832Y-105568088D01*
X137203000Y-105883967D01*
X137203000Y-106206033D01*
X137239896Y-106391525D01*
X134649139Y-108982283D01*
X134679589Y-108925314D01*
X134730195Y-108758490D01*
X134735698Y-108702615D01*
X134743000Y-108628477D01*
X134743000Y-108628469D01*
X134747281Y-108585000D01*
X134743000Y-108541531D01*
X134743000Y-106088465D01*
X134747281Y-106044999D01*
X134743000Y-106001533D01*
X134743000Y-106001523D01*
X134730195Y-105871510D01*
X134679589Y-105704687D01*
X134597411Y-105550941D01*
X134532775Y-105472182D01*
X134514532Y-105449953D01*
X134514530Y-105449951D01*
X134486817Y-105416183D01*
X134453049Y-105388470D01*
X132974535Y-103909957D01*
X132974531Y-103909952D01*
X132916104Y-103851525D01*
X132953000Y-103666033D01*
X132953000Y-103343967D01*
X132890168Y-103028088D01*
X132766918Y-102730537D01*
X132626370Y-102520191D01*
X132672494Y-102495537D01*
X132769185Y-102416185D01*
X132848537Y-102319494D01*
X132907502Y-102209180D01*
X132943812Y-102089482D01*
X132956072Y-101965000D01*
X132956072Y-99965000D01*
X132943812Y-99840518D01*
X132907502Y-99720820D01*
X132848537Y-99610506D01*
X132769185Y-99513815D01*
X132672494Y-99434463D01*
X132562180Y-99375498D01*
X132442482Y-99339188D01*
X132318000Y-99326928D01*
X130318000Y-99326928D01*
X130193518Y-99339188D01*
X130073820Y-99375498D01*
X129963506Y-99434463D01*
X129866815Y-99513815D01*
X129787463Y-99610506D01*
X129728498Y-99720820D01*
X129692188Y-99840518D01*
X129679928Y-99965000D01*
X129679928Y-101965000D01*
X129692188Y-102089482D01*
X129728498Y-102209180D01*
X129787463Y-102319494D01*
X129866815Y-102416185D01*
X129963506Y-102495537D01*
X130009630Y-102520191D01*
X129869082Y-102730537D01*
X129745832Y-103028088D01*
X129683000Y-103343967D01*
X129683000Y-103666033D01*
X129745832Y-103981912D01*
X129869082Y-104279463D01*
X130048013Y-104547252D01*
X130275748Y-104774987D01*
X130275767Y-104775000D01*
X130275748Y-104775013D01*
X130048013Y-105002748D01*
X129942941Y-105160000D01*
X126604579Y-105160000D01*
X124989534Y-103544956D01*
X124961817Y-103511183D01*
X124827059Y-103400589D01*
X124673313Y-103318411D01*
X124506490Y-103267805D01*
X124376477Y-103255000D01*
X124376469Y-103255000D01*
X124333000Y-103250719D01*
X124289531Y-103255000D01*
X116756465Y-103255000D01*
X116712999Y-103250719D01*
X116669533Y-103255000D01*
X116669523Y-103255000D01*
X116539510Y-103267805D01*
X116372687Y-103318411D01*
X116218941Y-103400589D01*
X116218939Y-103400590D01*
X116218940Y-103400590D01*
X116117953Y-103483468D01*
X116117951Y-103483470D01*
X116084183Y-103511183D01*
X116056470Y-103544951D01*
X115058000Y-104543421D01*
X115058000Y-104004521D01*
X115087759Y-103984637D01*
X115287637Y-103784759D01*
X115444680Y-103549727D01*
X115552853Y-103288574D01*
X115566684Y-103219039D01*
X125481096Y-103219039D01*
X125521754Y-103353087D01*
X125641963Y-103607420D01*
X125809481Y-103833414D01*
X126017869Y-104022385D01*
X126259119Y-104167070D01*
X126523960Y-104261909D01*
X126746000Y-104140624D01*
X126746000Y-102997000D01*
X127000000Y-102997000D01*
X127000000Y-104140624D01*
X127222040Y-104261909D01*
X127486881Y-104167070D01*
X127728131Y-104022385D01*
X127936519Y-103833414D01*
X128104037Y-103607420D01*
X128224246Y-103353087D01*
X128264904Y-103219039D01*
X128142915Y-102997000D01*
X127000000Y-102997000D01*
X126746000Y-102997000D01*
X125603085Y-102997000D01*
X125481096Y-103219039D01*
X115566684Y-103219039D01*
X115608000Y-103011335D01*
X115608000Y-102728665D01*
X115566685Y-102520961D01*
X125481096Y-102520961D01*
X125603085Y-102743000D01*
X126746000Y-102743000D01*
X126746000Y-101599376D01*
X127000000Y-101599376D01*
X127000000Y-102743000D01*
X128142915Y-102743000D01*
X128264904Y-102520961D01*
X128224246Y-102386913D01*
X128104037Y-102132580D01*
X127936519Y-101906586D01*
X127728131Y-101717615D01*
X127486881Y-101572930D01*
X127222040Y-101478091D01*
X127000000Y-101599376D01*
X126746000Y-101599376D01*
X126523960Y-101478091D01*
X126259119Y-101572930D01*
X126017869Y-101717615D01*
X125809481Y-101906586D01*
X125641963Y-102132580D01*
X125521754Y-102386913D01*
X125481096Y-102520961D01*
X115566685Y-102520961D01*
X115552853Y-102451426D01*
X115444680Y-102190273D01*
X115287637Y-101955241D01*
X115087759Y-101755363D01*
X115058000Y-101735479D01*
X115058000Y-99555078D01*
X115192608Y-99444608D01*
X115371932Y-99226101D01*
X115505182Y-98976808D01*
X115587236Y-98706309D01*
X115614943Y-98425000D01*
X115587236Y-98143691D01*
X115505182Y-97873192D01*
X115371932Y-97623899D01*
X115192608Y-97405392D01*
X114974101Y-97226068D01*
X114724808Y-97092818D01*
X114454309Y-97010764D01*
X114243492Y-96990000D01*
X114102508Y-96990000D01*
X113891691Y-97010764D01*
X113621192Y-97092818D01*
X113371899Y-97226068D01*
X113153392Y-97405392D01*
X112974068Y-97623899D01*
X112840818Y-97873192D01*
X112758764Y-98143691D01*
X112731057Y-98425000D01*
X112758764Y-98706309D01*
X112840818Y-98976808D01*
X112974068Y-99226101D01*
X113153392Y-99444608D01*
X113288000Y-99555078D01*
X113288001Y-101735478D01*
X113258241Y-101755363D01*
X113058363Y-101955241D01*
X112901320Y-102190273D01*
X112793147Y-102451426D01*
X112738000Y-102728665D01*
X112738000Y-103011335D01*
X112793147Y-103288574D01*
X112901320Y-103549727D01*
X113058363Y-103784759D01*
X113258241Y-103984637D01*
X113288000Y-104004521D01*
X113288001Y-105545478D01*
X113258241Y-105565363D01*
X113058363Y-105765241D01*
X112901320Y-106000273D01*
X112793147Y-106261426D01*
X112738000Y-106538665D01*
X112738000Y-106821335D01*
X112793147Y-107098574D01*
X112901320Y-107359727D01*
X113058363Y-107594759D01*
X113258241Y-107794637D01*
X113493273Y-107951680D01*
X113754426Y-108059853D01*
X114031665Y-108115000D01*
X114314335Y-108115000D01*
X114591574Y-108059853D01*
X114852727Y-107951680D01*
X115087759Y-107794637D01*
X115209694Y-107672702D01*
X115859903Y-107672702D01*
X115931486Y-107916671D01*
X116186996Y-108037571D01*
X116461184Y-108106300D01*
X116743512Y-108120217D01*
X117023130Y-108078787D01*
X117289292Y-107983603D01*
X117414514Y-107916671D01*
X117486097Y-107672702D01*
X116673000Y-106859605D01*
X115859903Y-107672702D01*
X115209694Y-107672702D01*
X115287637Y-107594759D01*
X115421692Y-107394131D01*
X115436329Y-107421514D01*
X115680298Y-107493097D01*
X116493395Y-106680000D01*
X116852605Y-106680000D01*
X117665702Y-107493097D01*
X117909671Y-107421514D01*
X118030571Y-107166004D01*
X118099300Y-106891816D01*
X118113217Y-106609488D01*
X118071787Y-106329870D01*
X117976603Y-106063708D01*
X117909671Y-105938486D01*
X117665702Y-105866903D01*
X116852605Y-106680000D01*
X116493395Y-106680000D01*
X116479253Y-106665858D01*
X116658858Y-106486253D01*
X116673000Y-106500395D01*
X117486097Y-105687298D01*
X117414514Y-105443329D01*
X117159004Y-105322429D01*
X116884816Y-105253700D01*
X116852473Y-105252106D01*
X117079579Y-105025000D01*
X123966422Y-105025000D01*
X125581468Y-106640047D01*
X125609183Y-106673817D01*
X125642951Y-106701530D01*
X125642953Y-106701532D01*
X125669693Y-106723477D01*
X125743941Y-106784411D01*
X125897687Y-106866589D01*
X126064510Y-106917195D01*
X126194523Y-106930000D01*
X126194531Y-106930000D01*
X126238000Y-106934281D01*
X126281469Y-106930000D01*
X129942941Y-106930000D01*
X130048013Y-107087252D01*
X130275748Y-107314987D01*
X130384600Y-107387720D01*
X130362192Y-107449587D01*
X131318000Y-108405395D01*
X132273808Y-107449587D01*
X132251400Y-107387720D01*
X132360252Y-107314987D01*
X132587987Y-107087252D01*
X132766918Y-106819463D01*
X132890168Y-106521912D01*
X132922216Y-106360795D01*
X132973001Y-106411580D01*
X132973000Y-108218421D01*
X132924660Y-108266761D01*
X132915961Y-108203325D01*
X132810795Y-107898912D01*
X132717814Y-107724956D01*
X132453413Y-107629192D01*
X131497605Y-108585000D01*
X131511748Y-108599143D01*
X131332143Y-108778748D01*
X131318000Y-108764605D01*
X130362192Y-109720413D01*
X130380152Y-109769999D01*
X128308000Y-109769999D01*
X128308000Y-109713665D01*
X128252853Y-109436426D01*
X128144680Y-109175273D01*
X127987637Y-108940241D01*
X127787759Y-108740363D01*
X127648922Y-108647595D01*
X129676282Y-108647595D01*
X129720039Y-108966675D01*
X129825205Y-109271088D01*
X129918186Y-109445044D01*
X130182587Y-109540808D01*
X131138395Y-108585000D01*
X130182587Y-107629192D01*
X129918186Y-107724956D01*
X129777296Y-108014571D01*
X129695616Y-108326108D01*
X129676282Y-108647595D01*
X127648922Y-108647595D01*
X127552727Y-108583320D01*
X127291574Y-108475147D01*
X127014335Y-108420000D01*
X126731665Y-108420000D01*
X126454426Y-108475147D01*
X126193273Y-108583320D01*
X125958241Y-108740363D01*
X125758363Y-108940241D01*
X125738479Y-108970000D01*
X122551465Y-108970000D01*
X122507999Y-108965719D01*
X122464533Y-108970000D01*
X122464523Y-108970000D01*
X122334510Y-108982805D01*
X122167687Y-109033411D01*
X122013941Y-109115589D01*
X122013939Y-109115590D01*
X122013940Y-109115590D01*
X121912953Y-109198468D01*
X121912951Y-109198470D01*
X121879183Y-109226183D01*
X121851470Y-109259951D01*
X118239439Y-112871983D01*
X118204335Y-112865000D01*
X117921665Y-112865000D01*
X117644426Y-112920147D01*
X117383273Y-113028320D01*
X117148241Y-113185363D01*
X116948363Y-113385241D01*
X116791320Y-113620273D01*
X116683147Y-113881426D01*
X116628000Y-114158665D01*
X116628000Y-114403421D01*
X113711296Y-117320126D01*
X113608492Y-117310000D01*
X113467508Y-117310000D01*
X113256691Y-117330764D01*
X112986192Y-117412818D01*
X112736899Y-117546068D01*
X112518392Y-117725392D01*
X112339068Y-117943899D01*
X112205818Y-118193192D01*
X112123764Y-118463691D01*
X112096057Y-118745000D01*
X111708000Y-118745000D01*
X111708000Y-110204039D01*
X112781096Y-110204039D01*
X112821754Y-110338087D01*
X112941963Y-110592420D01*
X113109481Y-110818414D01*
X113317869Y-111007385D01*
X113559119Y-111152070D01*
X113823960Y-111246909D01*
X114046000Y-111125624D01*
X114046000Y-109982000D01*
X114300000Y-109982000D01*
X114300000Y-111125624D01*
X114522040Y-111246909D01*
X114786881Y-111152070D01*
X115028131Y-111007385D01*
X115236519Y-110818414D01*
X115404037Y-110592420D01*
X115524246Y-110338087D01*
X115564904Y-110204039D01*
X115442915Y-109982000D01*
X114300000Y-109982000D01*
X114046000Y-109982000D01*
X112903085Y-109982000D01*
X112781096Y-110204039D01*
X111708000Y-110204039D01*
X111708000Y-109505961D01*
X112781096Y-109505961D01*
X112903085Y-109728000D01*
X114046000Y-109728000D01*
X114046000Y-108584376D01*
X114300000Y-108584376D01*
X114300000Y-109728000D01*
X115442915Y-109728000D01*
X115564904Y-109505961D01*
X115524246Y-109371913D01*
X115404037Y-109117580D01*
X115236519Y-108891586D01*
X115028131Y-108702615D01*
X114786881Y-108557930D01*
X114522040Y-108463091D01*
X114300000Y-108584376D01*
X114046000Y-108584376D01*
X113823960Y-108463091D01*
X113559119Y-108557930D01*
X113317869Y-108702615D01*
X113109481Y-108891586D01*
X112941963Y-109117580D01*
X112821754Y-109371913D01*
X112781096Y-109505961D01*
X111708000Y-109505961D01*
X111708000Y-73735000D01*
X124296293Y-73735000D01*
X124166406Y-73864887D01*
X124166406Y-73864887D01*
G37*
X124166406Y-73864887D02*
X123874536Y-74301702D01*
X123673492Y-74787065D01*
X123571000Y-75302323D01*
X123571000Y-75827677D01*
X123673492Y-76342935D01*
X123874536Y-76828298D01*
X124166406Y-77265113D01*
X124537887Y-77636594D01*
X124864755Y-77855000D01*
X123741469Y-77855000D01*
X123698000Y-77850719D01*
X123654531Y-77855000D01*
X123654523Y-77855000D01*
X123524510Y-77867805D01*
X123357687Y-77918411D01*
X123203941Y-78000589D01*
X123102953Y-78083468D01*
X123102951Y-78083470D01*
X123069183Y-78111183D01*
X123041470Y-78144951D01*
X118964525Y-82221897D01*
X118779033Y-82185000D01*
X118456967Y-82185000D01*
X118141088Y-82247832D01*
X117843537Y-82371082D01*
X117575748Y-82550013D01*
X117348013Y-82777748D01*
X117169082Y-83045537D01*
X117045832Y-83343088D01*
X116983000Y-83658967D01*
X116983000Y-83981033D01*
X117045832Y-84296912D01*
X117169082Y-84594463D01*
X117348013Y-84862252D01*
X117575748Y-85089987D01*
X117843537Y-85268918D01*
X118141088Y-85392168D01*
X118456967Y-85455000D01*
X118779033Y-85455000D01*
X119094912Y-85392168D01*
X119392463Y-85268918D01*
X119660252Y-85089987D01*
X119887987Y-84862252D01*
X119888000Y-84862233D01*
X119888013Y-84862252D01*
X120115748Y-85089987D01*
X120383537Y-85268918D01*
X120681088Y-85392168D01*
X120996967Y-85455000D01*
X121319033Y-85455000D01*
X121634912Y-85392168D01*
X121932463Y-85268918D01*
X122200252Y-85089987D01*
X122334826Y-84955413D01*
X122742192Y-84955413D01*
X122837956Y-85219814D01*
X123127571Y-85360704D01*
X123439108Y-85442384D01*
X123760595Y-85461718D01*
X124079675Y-85417961D01*
X124384088Y-85312795D01*
X124558044Y-85219814D01*
X124653808Y-84955413D01*
X123698000Y-83999605D01*
X122742192Y-84955413D01*
X122334826Y-84955413D01*
X122427987Y-84862252D01*
X122500720Y-84753400D01*
X122562587Y-84775808D01*
X123518395Y-83820000D01*
X123504253Y-83805858D01*
X123683858Y-83626253D01*
X123698000Y-83640395D01*
X124653808Y-82684587D01*
X124558044Y-82420186D01*
X124268429Y-82279296D01*
X124016369Y-82213210D01*
X125334579Y-80895000D01*
X143237931Y-80895000D01*
X143281400Y-80899281D01*
X143324869Y-80895000D01*
X143324877Y-80895000D01*
X143454890Y-80882195D01*
X143621713Y-80831589D01*
X143775459Y-80749411D01*
X143910217Y-80638817D01*
X143937934Y-80605044D01*
X147342526Y-77200452D01*
X147574000Y-77223251D01*
X147867777Y-77194316D01*
X148150264Y-77108625D01*
X148410606Y-76969469D01*
X148638797Y-76782197D01*
X148826069Y-76554006D01*
X148844000Y-76520459D01*
X148861931Y-76554006D01*
X149049203Y-76782197D01*
X149277395Y-76969469D01*
X149537737Y-77108625D01*
X149820224Y-77194316D01*
X150114000Y-77223251D01*
X150407777Y-77194316D01*
X150690264Y-77108625D01*
X150950606Y-76969469D01*
X151178797Y-76782197D01*
X151366069Y-76554006D01*
X151384000Y-76520459D01*
X151401931Y-76554006D01*
X151589203Y-76782197D01*
X151817395Y-76969469D01*
X152077737Y-77108625D01*
X152360224Y-77194316D01*
X152654000Y-77223251D01*
X152947777Y-77194316D01*
X153230264Y-77108625D01*
X153490606Y-76969469D01*
X153718797Y-76782197D01*
X153906069Y-76554006D01*
X154045225Y-76293663D01*
X154130916Y-76011176D01*
X154152600Y-75791018D01*
X154152600Y-75338981D01*
X154130916Y-75118823D01*
X154045225Y-74836336D01*
X153906069Y-74575994D01*
X153718797Y-74347803D01*
X153490605Y-74160531D01*
X153230263Y-74021375D01*
X152947776Y-73935684D01*
X152654000Y-73906749D01*
X152360223Y-73935684D01*
X152077736Y-74021375D01*
X151817394Y-74160531D01*
X151589203Y-74347803D01*
X151401931Y-74575995D01*
X151384000Y-74609541D01*
X151366069Y-74575994D01*
X151178797Y-74347803D01*
X150950605Y-74160531D01*
X150690263Y-74021375D01*
X150407776Y-73935684D01*
X150114000Y-73906749D01*
X149820223Y-73935684D01*
X149537736Y-74021375D01*
X149277394Y-74160531D01*
X149049203Y-74347803D01*
X148861931Y-74575995D01*
X148844000Y-74609541D01*
X148826069Y-74575994D01*
X148638797Y-74347803D01*
X148410605Y-74160531D01*
X148150263Y-74021375D01*
X147867776Y-73935684D01*
X147574000Y-73906749D01*
X147280223Y-73935684D01*
X146997736Y-74021375D01*
X146737394Y-74160531D01*
X146509203Y-74347803D01*
X146321931Y-74575995D01*
X146304000Y-74609541D01*
X146286069Y-74575994D01*
X146098797Y-74347803D01*
X145870605Y-74160531D01*
X145610263Y-74021375D01*
X145327776Y-73935684D01*
X145034000Y-73906749D01*
X144740223Y-73935684D01*
X144457736Y-74021375D01*
X144197394Y-74160531D01*
X143969203Y-74347803D01*
X143781931Y-74575995D01*
X143764000Y-74609541D01*
X143746069Y-74575994D01*
X143558797Y-74347803D01*
X143330605Y-74160531D01*
X143070263Y-74021375D01*
X142787776Y-73935684D01*
X142494000Y-73906749D01*
X142200223Y-73935684D01*
X141917736Y-74021375D01*
X141657394Y-74160531D01*
X141429203Y-74347803D01*
X141241931Y-74575995D01*
X141224000Y-74609541D01*
X141206069Y-74575994D01*
X141018797Y-74347803D01*
X140790605Y-74160531D01*
X140530263Y-74021375D01*
X140247776Y-73935684D01*
X139954000Y-73906749D01*
X139660223Y-73935684D01*
X139377736Y-74021375D01*
X139117394Y-74160531D01*
X138889203Y-74347803D01*
X138701931Y-74575995D01*
X138680576Y-74615947D01*
X138532486Y-74413271D01*
X138316035Y-74214267D01*
X138064919Y-74061314D01*
X137788789Y-73960291D01*
X137773026Y-73957642D01*
X137541000Y-74078783D01*
X137541000Y-75438000D01*
X137561000Y-75438000D01*
X137561000Y-75692000D01*
X137541000Y-75692000D01*
X137541000Y-77051217D01*
X137773026Y-77172358D01*
X137788789Y-77169709D01*
X138064919Y-77068686D01*
X138316035Y-76915733D01*
X138532486Y-76716729D01*
X138680576Y-76514053D01*
X138701931Y-76554006D01*
X138889203Y-76782197D01*
X139117395Y-76969469D01*
X139377737Y-77108625D01*
X139660224Y-77194316D01*
X139954000Y-77223251D01*
X140247777Y-77194316D01*
X140530264Y-77108625D01*
X140790606Y-76969469D01*
X141018797Y-76782197D01*
X141206069Y-76554006D01*
X141224000Y-76520459D01*
X141241931Y-76554006D01*
X141429203Y-76782197D01*
X141657395Y-76969469D01*
X141917737Y-77108625D01*
X142200224Y-77194316D01*
X142494000Y-77223251D01*
X142787777Y-77194316D01*
X143070264Y-77108625D01*
X143193860Y-77042561D01*
X142381422Y-77855000D01*
X127611245Y-77855000D01*
X127938113Y-77636594D01*
X128309594Y-77265113D01*
X128601464Y-76828298D01*
X128657001Y-76694219D01*
X128729203Y-76782197D01*
X128957395Y-76969469D01*
X129217737Y-77108625D01*
X129500224Y-77194316D01*
X129794000Y-77223251D01*
X130087777Y-77194316D01*
X130370264Y-77108625D01*
X130630606Y-76969469D01*
X130858797Y-76782197D01*
X131046069Y-76554006D01*
X131064000Y-76520459D01*
X131081931Y-76554006D01*
X131269203Y-76782197D01*
X131497395Y-76969469D01*
X131757737Y-77108625D01*
X132040224Y-77194316D01*
X132334000Y-77223251D01*
X132627777Y-77194316D01*
X132910264Y-77108625D01*
X133170606Y-76969469D01*
X133398797Y-76782197D01*
X133586069Y-76554006D01*
X133604000Y-76520459D01*
X133621931Y-76554006D01*
X133809203Y-76782197D01*
X134037395Y-76969469D01*
X134297737Y-77108625D01*
X134580224Y-77194316D01*
X134874000Y-77223251D01*
X135167777Y-77194316D01*
X135450264Y-77108625D01*
X135710606Y-76969469D01*
X135938797Y-76782197D01*
X136126069Y-76554006D01*
X136147424Y-76514053D01*
X136295514Y-76716729D01*
X136511965Y-76915733D01*
X136763081Y-77068686D01*
X137039211Y-77169709D01*
X137054974Y-77172358D01*
X137287000Y-77051217D01*
X137287000Y-75692000D01*
X137267000Y-75692000D01*
X137267000Y-75438000D01*
X137287000Y-75438000D01*
X137287000Y-74078783D01*
X137054974Y-73957642D01*
X137039211Y-73960291D01*
X136763081Y-74061314D01*
X136511965Y-74214267D01*
X136295514Y-74413271D01*
X136147424Y-74615947D01*
X136126069Y-74575994D01*
X135938797Y-74347803D01*
X135710605Y-74160531D01*
X135450263Y-74021375D01*
X135167776Y-73935684D01*
X134874000Y-73906749D01*
X134580223Y-73935684D01*
X134297736Y-74021375D01*
X134037394Y-74160531D01*
X133809203Y-74347803D01*
X133621931Y-74575995D01*
X133604000Y-74609541D01*
X133586069Y-74575994D01*
X133398797Y-74347803D01*
X133170605Y-74160531D01*
X132910263Y-74021375D01*
X132627776Y-73935684D01*
X132334000Y-73906749D01*
X132040223Y-73935684D01*
X131757736Y-74021375D01*
X131497394Y-74160531D01*
X131269203Y-74347803D01*
X131081931Y-74575995D01*
X131064000Y-74609541D01*
X131046069Y-74575994D01*
X130858797Y-74347803D01*
X130630605Y-74160531D01*
X130370263Y-74021375D01*
X130087776Y-73935684D01*
X129794000Y-73906749D01*
X129500223Y-73935684D01*
X129217736Y-74021375D01*
X128957394Y-74160531D01*
X128729203Y-74347803D01*
X128657001Y-74435781D01*
X128601464Y-74301702D01*
X128309594Y-73864887D01*
X128179707Y-73735000D01*
X175219909Y-73735000D01*
X176328001Y-74843093D01*
X176328000Y-85944125D01*
X176324565Y-85979000D01*
X176328000Y-86013875D01*
X176328000Y-86013876D01*
X176338273Y-86118183D01*
X176378872Y-86252019D01*
X176444800Y-86375362D01*
X176533525Y-86483474D01*
X176560617Y-86505708D01*
X178868001Y-88813093D01*
X178868001Y-88863294D01*
X178738113Y-88733406D01*
X178301298Y-88441536D01*
X177815935Y-88240492D01*
X177300677Y-88138000D01*
X176775323Y-88138000D01*
X176260065Y-88240492D01*
X175774702Y-88441536D01*
X175337887Y-88733406D01*
X174966406Y-89104887D01*
X174674536Y-89541702D01*
X174473492Y-90027065D01*
X174371000Y-90542323D01*
X174371000Y-91067677D01*
X174473492Y-91582935D01*
X174674536Y-92068298D01*
X174966406Y-92505113D01*
X175337887Y-92876594D01*
X175774702Y-93168464D01*
X176260065Y-93369508D01*
X176775323Y-93472000D01*
X177300677Y-93472000D01*
X177815935Y-93369508D01*
X178301298Y-93168464D01*
X178738113Y-92876594D01*
X178868001Y-92746706D01*
X178868000Y-116803293D01*
X178738113Y-116673406D01*
X178301298Y-116381536D01*
X177815935Y-116180492D01*
X177300677Y-116078000D01*
X176775323Y-116078000D01*
X176260065Y-116180492D01*
X175774702Y-116381536D01*
X175337887Y-116673406D01*
X174966406Y-117044887D01*
X174748000Y-117371755D01*
X174748000Y-110768465D01*
X174752281Y-110724999D01*
X174748000Y-110681533D01*
X174748000Y-110681523D01*
X174735195Y-110551510D01*
X174684589Y-110384687D01*
X174602411Y-110230941D01*
X174573172Y-110195313D01*
X174519532Y-110129953D01*
X174519530Y-110129951D01*
X174491817Y-110096183D01*
X174458050Y-110068471D01*
X173597817Y-109208238D01*
X173575130Y-108977898D01*
X173504511Y-108745099D01*
X173389833Y-108530551D01*
X173235502Y-108342498D01*
X173047449Y-108188167D01*
X172832901Y-108073489D01*
X172600102Y-108002870D01*
X172418665Y-107985000D01*
X171497335Y-107985000D01*
X171315898Y-108002870D01*
X171083099Y-108073489D01*
X170868551Y-108188167D01*
X170680498Y-108342498D01*
X170526167Y-108530551D01*
X170411489Y-108745099D01*
X170340870Y-108977898D01*
X170317025Y-109220000D01*
X170340870Y-109462102D01*
X170411489Y-109694901D01*
X170526167Y-109909449D01*
X170680498Y-110097502D01*
X170868551Y-110251833D01*
X171083099Y-110366511D01*
X171315898Y-110437130D01*
X171497335Y-110455000D01*
X172341422Y-110455000D01*
X172411422Y-110525000D01*
X171497335Y-110525000D01*
X171315898Y-110542870D01*
X171083099Y-110613489D01*
X170868551Y-110728167D01*
X170680498Y-110882498D01*
X170526167Y-111070551D01*
X170411489Y-111285099D01*
X170340870Y-111517898D01*
X170317025Y-111760000D01*
X170340870Y-112002102D01*
X170411489Y-112234901D01*
X170526167Y-112449449D01*
X170680498Y-112637502D01*
X170868551Y-112791833D01*
X171073000Y-112901113D01*
X171073001Y-122460246D01*
X170893203Y-122607803D01*
X170705931Y-122835995D01*
X170688000Y-122869541D01*
X170670069Y-122835994D01*
X170482797Y-122607803D01*
X170254605Y-122420531D01*
X169994263Y-122281375D01*
X169711776Y-122195684D01*
X169418000Y-122166749D01*
X169124223Y-122195684D01*
X168841736Y-122281375D01*
X168581394Y-122420531D01*
X168353203Y-122607803D01*
X168165931Y-122835995D01*
X168148000Y-122869541D01*
X168130069Y-122835994D01*
X167942797Y-122607803D01*
X167714605Y-122420531D01*
X167454263Y-122281375D01*
X167171776Y-122195684D01*
X166878000Y-122166749D01*
X166584223Y-122195684D01*
X166301736Y-122281375D01*
X166041394Y-122420531D01*
X165813203Y-122607803D01*
X165625931Y-122835995D01*
X165608000Y-122869541D01*
X165590069Y-122835994D01*
X165402797Y-122607803D01*
X165174605Y-122420531D01*
X164914263Y-122281375D01*
X164631776Y-122195684D01*
X164338000Y-122166749D01*
X164044223Y-122195684D01*
X163761736Y-122281375D01*
X163501394Y-122420531D01*
X163318000Y-122571039D01*
X163318000Y-107814521D01*
X163347759Y-107794637D01*
X163547637Y-107594759D01*
X163704680Y-107359727D01*
X163812853Y-107098574D01*
X163832936Y-106997609D01*
X170364538Y-106997609D01*
X170368409Y-107035282D01*
X170460579Y-107260533D01*
X170594922Y-107463474D01*
X170766275Y-107636307D01*
X170968054Y-107772390D01*
X171192504Y-107866493D01*
X171431000Y-107915000D01*
X171831000Y-107915000D01*
X171831000Y-106807000D01*
X172085000Y-106807000D01*
X172085000Y-107915000D01*
X172485000Y-107915000D01*
X172723496Y-107866493D01*
X172947946Y-107772390D01*
X173149725Y-107636307D01*
X173321078Y-107463474D01*
X173455421Y-107260533D01*
X173547591Y-107035282D01*
X173551462Y-106997609D01*
X173426731Y-106807000D01*
X172085000Y-106807000D01*
X171831000Y-106807000D01*
X170489269Y-106807000D01*
X170364538Y-106997609D01*
X163832936Y-106997609D01*
X163868000Y-106821335D01*
X163868000Y-106538665D01*
X163832937Y-106362391D01*
X170364538Y-106362391D01*
X170489269Y-106553000D01*
X171831000Y-106553000D01*
X171831000Y-105445000D01*
X172085000Y-105445000D01*
X172085000Y-106553000D01*
X173426731Y-106553000D01*
X173551462Y-106362391D01*
X173547591Y-106324718D01*
X173455421Y-106099467D01*
X173321078Y-105896526D01*
X173149725Y-105723693D01*
X172947946Y-105587610D01*
X172723496Y-105493507D01*
X172485000Y-105445000D01*
X172085000Y-105445000D01*
X171831000Y-105445000D01*
X171431000Y-105445000D01*
X171192504Y-105493507D01*
X170968054Y-105587610D01*
X170766275Y-105723693D01*
X170594922Y-105896526D01*
X170460579Y-106099467D01*
X170368409Y-106324718D01*
X170364538Y-106362391D01*
X163832937Y-106362391D01*
X163812853Y-106261426D01*
X163704680Y-106000273D01*
X163547637Y-105765241D01*
X163347759Y-105565363D01*
X163147131Y-105431308D01*
X163174514Y-105416671D01*
X163246097Y-105172702D01*
X162433000Y-104359605D01*
X161619903Y-105172702D01*
X161691486Y-105416671D01*
X161720341Y-105430324D01*
X161518241Y-105565363D01*
X161318363Y-105765241D01*
X161298479Y-105795000D01*
X160398209Y-105795000D01*
X159696792Y-105093584D01*
X159821932Y-104941101D01*
X159955182Y-104691808D01*
X160037236Y-104421309D01*
X160054058Y-104250512D01*
X160992783Y-104250512D01*
X161034213Y-104530130D01*
X161129397Y-104796292D01*
X161196329Y-104921514D01*
X161440298Y-104993097D01*
X162253395Y-104180000D01*
X162612605Y-104180000D01*
X163425702Y-104993097D01*
X163669671Y-104921514D01*
X163790571Y-104666004D01*
X163859300Y-104391816D01*
X163873217Y-104109488D01*
X163831787Y-103829870D01*
X163736603Y-103563708D01*
X163669671Y-103438486D01*
X163425702Y-103366903D01*
X162612605Y-104180000D01*
X162253395Y-104180000D01*
X161440298Y-103366903D01*
X161196329Y-103438486D01*
X161075429Y-103693996D01*
X161006700Y-103968184D01*
X160992783Y-104250512D01*
X160054058Y-104250512D01*
X160064943Y-104140000D01*
X160037236Y-103858691D01*
X159955182Y-103588192D01*
X159821932Y-103338899D01*
X159697517Y-103187298D01*
X161619903Y-103187298D01*
X162433000Y-104000395D01*
X163246097Y-103187298D01*
X163174514Y-102943329D01*
X162919004Y-102822429D01*
X162644816Y-102753700D01*
X162362488Y-102739783D01*
X162082870Y-102781213D01*
X161816708Y-102876397D01*
X161691486Y-102943329D01*
X161619903Y-103187298D01*
X159697517Y-103187298D01*
X159642608Y-103120392D01*
X159424101Y-102941068D01*
X159174808Y-102807818D01*
X158904309Y-102725764D01*
X158693492Y-102705000D01*
X158552508Y-102705000D01*
X158341691Y-102725764D01*
X158071192Y-102807818D01*
X157821899Y-102941068D01*
X157603392Y-103120392D01*
X157424068Y-103338899D01*
X157290818Y-103588192D01*
X157208764Y-103858691D01*
X157181057Y-104140000D01*
X157208764Y-104421309D01*
X157290818Y-104691808D01*
X157424068Y-104941101D01*
X157603392Y-105159608D01*
X157734157Y-105266924D01*
X157733719Y-105271370D01*
X157750805Y-105444860D01*
X157801412Y-105611683D01*
X157883590Y-105765429D01*
X157966468Y-105866416D01*
X157966471Y-105866419D01*
X157994184Y-105900187D01*
X158027951Y-105927899D01*
X159375100Y-107275049D01*
X159402813Y-107308817D01*
X159436581Y-107336530D01*
X159436583Y-107336532D01*
X159537571Y-107419411D01*
X159691316Y-107501589D01*
X159826998Y-107542748D01*
X159858140Y-107552195D01*
X159988153Y-107565000D01*
X159988161Y-107565000D01*
X160031630Y-107569281D01*
X160075099Y-107565000D01*
X161298479Y-107565000D01*
X161318363Y-107594759D01*
X161518241Y-107794637D01*
X161548000Y-107814521D01*
X161548001Y-122191372D01*
X161504223Y-122195684D01*
X161221736Y-122281375D01*
X160961394Y-122420531D01*
X160733203Y-122607803D01*
X160545931Y-122835995D01*
X160406775Y-123096337D01*
X160321084Y-123378824D01*
X160299400Y-123598982D01*
X160299400Y-124051019D01*
X160321084Y-124271177D01*
X160406775Y-124553664D01*
X160545931Y-124814006D01*
X160733203Y-125042197D01*
X160961395Y-125229469D01*
X161221737Y-125368625D01*
X161504224Y-125454316D01*
X161798000Y-125483251D01*
X162091777Y-125454316D01*
X162374264Y-125368625D01*
X162634606Y-125229469D01*
X162862797Y-125042197D01*
X163050069Y-124814006D01*
X163068000Y-124780459D01*
X163085931Y-124814006D01*
X163273203Y-125042197D01*
X163501395Y-125229469D01*
X163761737Y-125368625D01*
X164044224Y-125454316D01*
X164338000Y-125483251D01*
X164631777Y-125454316D01*
X164914264Y-125368625D01*
X165174606Y-125229469D01*
X165402797Y-125042197D01*
X165590069Y-124814006D01*
X165608000Y-124780459D01*
X165625931Y-124814006D01*
X165813203Y-125042197D01*
X166041395Y-125229469D01*
X166301737Y-125368625D01*
X166584224Y-125454316D01*
X166878000Y-125483251D01*
X167171777Y-125454316D01*
X167454264Y-125368625D01*
X167714606Y-125229469D01*
X167942797Y-125042197D01*
X168130069Y-124814006D01*
X168148000Y-124780459D01*
X168165931Y-124814006D01*
X168353203Y-125042197D01*
X168581395Y-125229469D01*
X168841737Y-125368625D01*
X169124224Y-125454316D01*
X169418000Y-125483251D01*
X169711777Y-125454316D01*
X169994264Y-125368625D01*
X170254606Y-125229469D01*
X170482797Y-125042197D01*
X170670069Y-124814006D01*
X170688000Y-124780459D01*
X170705931Y-124814006D01*
X170893203Y-125042197D01*
X171121395Y-125229469D01*
X171381737Y-125368625D01*
X171664224Y-125454316D01*
X171958000Y-125483251D01*
X172251777Y-125454316D01*
X172534264Y-125368625D01*
X172794606Y-125229469D01*
X173022797Y-125042197D01*
X173210069Y-124814006D01*
X173228000Y-124780459D01*
X173245931Y-124814006D01*
X173433203Y-125042197D01*
X173661395Y-125229469D01*
X173921737Y-125368625D01*
X174204224Y-125454316D01*
X174498000Y-125483251D01*
X174791777Y-125454316D01*
X175074264Y-125368625D01*
X175334606Y-125229469D01*
X175562797Y-125042197D01*
X175750069Y-124814006D01*
X175889225Y-124553663D01*
X175974916Y-124271176D01*
X175996600Y-124051018D01*
X175996600Y-123598981D01*
X175974916Y-123378823D01*
X175889225Y-123096336D01*
X175750069Y-122835994D01*
X175562797Y-122607803D01*
X175383000Y-122460248D01*
X175383000Y-121963469D01*
X175387281Y-121920000D01*
X175383000Y-121876531D01*
X175383000Y-121876523D01*
X175370195Y-121746510D01*
X175333430Y-121625313D01*
X175319589Y-121579686D01*
X175237411Y-121425941D01*
X175154532Y-121324953D01*
X175154530Y-121324951D01*
X175126817Y-121291183D01*
X175093050Y-121263471D01*
X174748000Y-120918422D01*
X174748000Y-120118245D01*
X174966406Y-120445113D01*
X175337887Y-120816594D01*
X175774702Y-121108464D01*
X176260065Y-121309508D01*
X176775323Y-121412000D01*
X177300677Y-121412000D01*
X177815935Y-121309508D01*
X178301298Y-121108464D01*
X178738113Y-120816594D01*
X178868000Y-120686707D01*
X178868000Y-120990908D01*
X176560617Y-123298292D01*
X176533526Y-123320525D01*
X176511293Y-123347616D01*
X176444801Y-123428637D01*
X176378872Y-123551981D01*
X176338274Y-123685816D01*
X176324565Y-123825000D01*
X176328001Y-123859885D01*
X176328000Y-125655000D01*
X126909707Y-125655000D01*
X127039594Y-125525113D01*
X127331464Y-125088298D01*
X127532508Y-124602935D01*
X127635000Y-124087677D01*
X127635000Y-123562323D01*
X127532508Y-123047065D01*
X127331464Y-122561702D01*
X127039594Y-122124887D01*
X126668113Y-121753406D01*
X126231298Y-121461536D01*
X125745935Y-121260492D01*
X125230677Y-121158000D01*
X124705323Y-121158000D01*
X124190065Y-121260492D01*
X123704702Y-121461536D01*
X123267887Y-121753406D01*
X122896406Y-122124887D01*
X122604536Y-122561702D01*
X122403492Y-123047065D01*
X122301000Y-123562323D01*
X122301000Y-124087677D01*
X122403492Y-124602935D01*
X122604536Y-125088298D01*
X122896406Y-125525113D01*
X123026293Y-125655000D01*
X111708000Y-125655000D01*
X111708000Y-118745000D01*
X112096057Y-118745000D01*
X112123764Y-119026309D01*
X112205818Y-119296808D01*
X112339068Y-119546101D01*
X112518392Y-119764608D01*
X112736899Y-119943932D01*
X112986192Y-120077182D01*
X113256691Y-120159236D01*
X113467508Y-120180000D01*
X113608492Y-120180000D01*
X113819309Y-120159236D01*
X114089808Y-120077182D01*
X114339101Y-119943932D01*
X114557608Y-119764608D01*
X114736932Y-119546101D01*
X114870182Y-119296808D01*
X114952236Y-119026309D01*
X114979943Y-118745000D01*
X114962875Y-118571704D01*
X117819834Y-115714744D01*
X117921665Y-115735000D01*
X118204335Y-115735000D01*
X118481574Y-115679853D01*
X118742727Y-115571680D01*
X118977759Y-115414637D01*
X119177637Y-115214759D01*
X119334680Y-114979727D01*
X119442853Y-114718574D01*
X119498000Y-114441335D01*
X119498000Y-114158665D01*
X119491017Y-114123561D01*
X122874579Y-110740000D01*
X125738479Y-110740000D01*
X125758363Y-110769759D01*
X125958241Y-110969637D01*
X126193273Y-111126680D01*
X126454426Y-111234853D01*
X126731665Y-111290000D01*
X127014335Y-111290000D01*
X127044424Y-111284015D01*
X127077950Y-111311529D01*
X127077952Y-111311531D01*
X127129478Y-111353817D01*
X127178940Y-111394410D01*
X127332686Y-111476588D01*
X127499509Y-111527194D01*
X127629522Y-111539999D01*
X127629532Y-111539999D01*
X127672998Y-111544280D01*
X127716464Y-111539999D01*
X131744532Y-111539999D01*
X131788001Y-111544280D01*
X131831470Y-111539999D01*
X131831478Y-111539999D01*
X131961491Y-111527194D01*
X132128314Y-111476588D01*
X132185285Y-111446137D01*
X130216422Y-113415000D01*
X124197521Y-113415000D01*
X124177637Y-113385241D01*
X123977759Y-113185363D01*
X123742727Y-113028320D01*
X123481574Y-112920147D01*
X123204335Y-112865000D01*
X122921665Y-112865000D01*
X122644426Y-112920147D01*
X122383273Y-113028320D01*
X122148241Y-113185363D01*
X121948363Y-113385241D01*
X121791320Y-113620273D01*
X121683147Y-113881426D01*
X121628000Y-114158665D01*
X121628000Y-114441335D01*
X121683147Y-114718574D01*
X121791320Y-114979727D01*
X121948363Y-115214759D01*
X122148241Y-115414637D01*
X122383273Y-115571680D01*
X122644426Y-115679853D01*
X122921665Y-115735000D01*
X123204335Y-115735000D01*
X123239439Y-115728017D01*
X125232513Y-117721091D01*
X125123363Y-117830241D01*
X124966320Y-118065273D01*
X124858147Y-118326426D01*
X124803000Y-118603665D01*
X124803000Y-118886335D01*
X124858147Y-119163574D01*
X124966320Y-119424727D01*
X125123363Y-119659759D01*
X125323241Y-119859637D01*
X125558273Y-120016680D01*
X125819426Y-120124853D01*
X126096665Y-120180000D01*
X126379335Y-120180000D01*
X126656574Y-120124853D01*
X126917727Y-120016680D01*
X127152759Y-119859637D01*
X127352637Y-119659759D01*
X127509680Y-119424727D01*
X127617853Y-119163574D01*
X127673000Y-118886335D01*
X127673000Y-118603665D01*
X127617853Y-118326426D01*
X127509680Y-118065273D01*
X127352637Y-117830241D01*
X127152759Y-117630363D01*
X127123000Y-117610479D01*
X127123000Y-117518466D01*
X127127281Y-117474999D01*
X127123000Y-117431533D01*
X127123000Y-117431523D01*
X127110195Y-117301510D01*
X127059589Y-117134687D01*
X126977411Y-116980941D01*
X126866817Y-116846183D01*
X126833049Y-116818470D01*
X125199578Y-115185000D01*
X130539531Y-115185000D01*
X130583000Y-115189281D01*
X130626469Y-115185000D01*
X130626477Y-115185000D01*
X130756490Y-115172195D01*
X130923313Y-115121589D01*
X131077059Y-115039411D01*
X131211817Y-114928817D01*
X131239534Y-114895044D01*
X137233784Y-108900795D01*
X137265832Y-109061912D01*
X137389082Y-109359463D01*
X137568013Y-109627252D01*
X137795748Y-109854987D01*
X138063537Y-110033918D01*
X138361088Y-110157168D01*
X138676967Y-110220000D01*
X138999033Y-110220000D01*
X139314912Y-110157168D01*
X139612463Y-110033918D01*
X139880252Y-109854987D01*
X140107987Y-109627252D01*
X140286918Y-109359463D01*
X140410168Y-109061912D01*
X140473000Y-108746033D01*
X140473000Y-108423967D01*
X140410168Y-108108088D01*
X140286918Y-107810537D01*
X140107987Y-107542748D01*
X139880252Y-107315013D01*
X139880233Y-107315000D01*
X139880252Y-107314987D01*
X140107987Y-107087252D01*
X140213059Y-106930000D01*
X143974531Y-106930000D01*
X144018000Y-106934281D01*
X144061469Y-106930000D01*
X144061477Y-106930000D01*
X144191490Y-106917195D01*
X144358313Y-106866589D01*
X144512059Y-106784411D01*
X144646817Y-106673817D01*
X144674534Y-106640044D01*
X145746561Y-105568017D01*
X145781665Y-105575000D01*
X146064335Y-105575000D01*
X146341574Y-105519853D01*
X146602727Y-105411680D01*
X146837759Y-105254637D01*
X147037637Y-105054759D01*
X147194680Y-104819727D01*
X147302853Y-104558574D01*
X147358000Y-104281335D01*
X147358000Y-103998665D01*
X147302853Y-103721426D01*
X147194680Y-103460273D01*
X147037637Y-103225241D01*
X146837759Y-103025363D01*
X146602727Y-102868320D01*
X146341574Y-102760147D01*
X146064335Y-102705000D01*
X145781665Y-102705000D01*
X145504426Y-102760147D01*
X145243273Y-102868320D01*
X145008241Y-103025363D01*
X144808363Y-103225241D01*
X144651320Y-103460273D01*
X144543147Y-103721426D01*
X144488000Y-103998665D01*
X144488000Y-104281335D01*
X144494983Y-104316439D01*
X143651422Y-105160000D01*
X140213059Y-105160000D01*
X140107987Y-105002748D01*
X139880252Y-104775013D01*
X139880233Y-104775000D01*
X139880252Y-104774987D01*
X140107987Y-104547252D01*
X140286918Y-104279463D01*
X140410168Y-103981912D01*
X140473000Y-103666033D01*
X140473000Y-103343967D01*
X140436103Y-103158475D01*
X143014579Y-100580000D01*
X144788479Y-100580000D01*
X144808363Y-100609759D01*
X145008241Y-100809637D01*
X145243273Y-100966680D01*
X145504426Y-101074853D01*
X145781665Y-101130000D01*
X146064335Y-101130000D01*
X146099438Y-101123017D01*
X146127952Y-101151531D01*
X146127957Y-101151535D01*
X148213001Y-103236580D01*
X148213000Y-122460247D01*
X148033203Y-122607803D01*
X147845931Y-122835995D01*
X147828000Y-122869541D01*
X147810069Y-122835994D01*
X147622797Y-122607803D01*
X147394605Y-122420531D01*
X147134263Y-122281375D01*
X146851776Y-122195684D01*
X146558000Y-122166749D01*
X146264223Y-122195684D01*
X145981736Y-122281375D01*
X145721394Y-122420531D01*
X145493203Y-122607803D01*
X145305931Y-122835995D01*
X145288000Y-122869541D01*
X145270069Y-122835994D01*
X145082797Y-122607803D01*
X144854605Y-122420531D01*
X144594263Y-122281375D01*
X144311776Y-122195684D01*
X144018000Y-122166749D01*
X143724223Y-122195684D01*
X143441736Y-122281375D01*
X143181394Y-122420531D01*
X142953203Y-122607803D01*
X142765931Y-122835995D01*
X142748000Y-122869541D01*
X142730069Y-122835994D01*
X142542797Y-122607803D01*
X142314605Y-122420531D01*
X142054263Y-122281375D01*
X141771776Y-122195684D01*
X141478000Y-122166749D01*
X141184223Y-122195684D01*
X140901736Y-122281375D01*
X140641394Y-122420531D01*
X140413203Y-122607803D01*
X140225931Y-122835995D01*
X140208000Y-122869541D01*
X140190069Y-122835994D01*
X140002797Y-122607803D01*
X139774605Y-122420531D01*
X139514263Y-122281375D01*
X139231776Y-122195684D01*
X138938000Y-122166749D01*
X138644223Y-122195684D01*
X138361736Y-122281375D01*
X138101394Y-122420531D01*
X137873203Y-122607803D01*
X137685931Y-122835995D01*
X137546775Y-123096337D01*
X137461084Y-123378824D01*
X137439400Y-123598982D01*
X137439400Y-124051019D01*
X137461084Y-124271177D01*
X137546775Y-124553664D01*
X137685931Y-124814006D01*
X137873203Y-125042197D01*
X138101395Y-125229469D01*
X138361737Y-125368625D01*
X138644224Y-125454316D01*
X138938000Y-125483251D01*
X139231777Y-125454316D01*
X139514264Y-125368625D01*
X139774606Y-125229469D01*
X140002797Y-125042197D01*
X140190069Y-124814006D01*
X140208000Y-124780459D01*
X140225931Y-124814006D01*
X140413203Y-125042197D01*
X140641395Y-125229469D01*
X140901737Y-125368625D01*
X141184224Y-125454316D01*
X141478000Y-125483251D01*
X141771777Y-125454316D01*
X142054264Y-125368625D01*
X142314606Y-125229469D01*
X142542797Y-125042197D01*
X142730069Y-124814006D01*
X142748000Y-124780459D01*
X142765931Y-124814006D01*
X142953203Y-125042197D01*
X143181395Y-125229469D01*
X143441737Y-125368625D01*
X143724224Y-125454316D01*
X144018000Y-125483251D01*
X144311777Y-125454316D01*
X144594264Y-125368625D01*
X144854606Y-125229469D01*
X145082797Y-125042197D01*
X145270069Y-124814006D01*
X145288000Y-124780459D01*
X145305931Y-124814006D01*
X145493203Y-125042197D01*
X145721395Y-125229469D01*
X145981737Y-125368625D01*
X146264224Y-125454316D01*
X146558000Y-125483251D01*
X146851777Y-125454316D01*
X147134264Y-125368625D01*
X147394606Y-125229469D01*
X147622797Y-125042197D01*
X147810069Y-124814006D01*
X147828000Y-124780459D01*
X147845931Y-124814006D01*
X148033203Y-125042197D01*
X148261395Y-125229469D01*
X148521737Y-125368625D01*
X148804224Y-125454316D01*
X149098000Y-125483251D01*
X149391777Y-125454316D01*
X149674264Y-125368625D01*
X149934606Y-125229469D01*
X150162797Y-125042197D01*
X150350069Y-124814006D01*
X150371424Y-124774053D01*
X150519514Y-124976729D01*
X150735965Y-125175733D01*
X150987081Y-125328686D01*
X151263211Y-125429709D01*
X151278974Y-125432358D01*
X151511000Y-125311217D01*
X151511000Y-123952000D01*
X151765000Y-123952000D01*
X151765000Y-125311217D01*
X151997026Y-125432358D01*
X152012789Y-125429709D01*
X152288919Y-125328686D01*
X152540035Y-125175733D01*
X152756486Y-124976729D01*
X152908000Y-124769367D01*
X153059514Y-124976729D01*
X153275965Y-125175733D01*
X153527081Y-125328686D01*
X153803211Y-125429709D01*
X153818974Y-125432358D01*
X154051000Y-125311217D01*
X154051000Y-123952000D01*
X151765000Y-123952000D01*
X151511000Y-123952000D01*
X151491000Y-123952000D01*
X151491000Y-123698000D01*
X151511000Y-123698000D01*
X151511000Y-122338783D01*
X151765000Y-122338783D01*
X151765000Y-123698000D01*
X154051000Y-123698000D01*
X154051000Y-122338783D01*
X154305000Y-122338783D01*
X154305000Y-123698000D01*
X154325000Y-123698000D01*
X154325000Y-123952000D01*
X154305000Y-123952000D01*
X154305000Y-125311217D01*
X154537026Y-125432358D01*
X154552789Y-125429709D01*
X154828919Y-125328686D01*
X155080035Y-125175733D01*
X155296486Y-124976729D01*
X155444576Y-124774053D01*
X155465931Y-124814006D01*
X155653203Y-125042197D01*
X155881395Y-125229469D01*
X156141737Y-125368625D01*
X156424224Y-125454316D01*
X156718000Y-125483251D01*
X157011777Y-125454316D01*
X157294264Y-125368625D01*
X157554606Y-125229469D01*
X157782797Y-125042197D01*
X157970069Y-124814006D01*
X158109225Y-124553663D01*
X158194916Y-124271176D01*
X158216600Y-124051018D01*
X158216600Y-123598981D01*
X158194916Y-123378823D01*
X158109225Y-123096336D01*
X157970069Y-122835994D01*
X157782797Y-122607803D01*
X157554605Y-122420531D01*
X157294263Y-122281375D01*
X157011776Y-122195684D01*
X156718000Y-122166749D01*
X156424223Y-122195684D01*
X156141736Y-122281375D01*
X155881394Y-122420531D01*
X155653203Y-122607803D01*
X155465931Y-122835995D01*
X155444576Y-122875947D01*
X155296486Y-122673271D01*
X155080035Y-122474267D01*
X154828919Y-122321314D01*
X154552789Y-122220291D01*
X154537026Y-122217642D01*
X154305000Y-122338783D01*
X154051000Y-122338783D01*
X153818974Y-122217642D01*
X153803211Y-122220291D01*
X153527081Y-122321314D01*
X153275965Y-122474267D01*
X153059514Y-122673271D01*
X152908000Y-122880633D01*
X152756486Y-122673271D01*
X152540035Y-122474267D01*
X152288919Y-122321314D01*
X152012789Y-122220291D01*
X151997026Y-122217642D01*
X151765000Y-122338783D01*
X151511000Y-122338783D01*
X151278974Y-122217642D01*
X151263211Y-122220291D01*
X150987081Y-122321314D01*
X150735965Y-122474267D01*
X150519514Y-122673271D01*
X150371424Y-122875947D01*
X150350069Y-122835994D01*
X150162797Y-122607803D01*
X149983000Y-122460248D01*
X149983000Y-102913469D01*
X149987281Y-102870000D01*
X149983000Y-102826531D01*
X149983000Y-93711578D01*
X150484165Y-93210413D01*
X160842192Y-93210413D01*
X160937956Y-93474814D01*
X161227571Y-93615704D01*
X161539108Y-93697384D01*
X161860595Y-93716718D01*
X162179675Y-93672961D01*
X162484088Y-93567795D01*
X162658044Y-93474814D01*
X162753808Y-93210413D01*
X161798000Y-92254605D01*
X160842192Y-93210413D01*
X150484165Y-93210413D01*
X151556983Y-92137595D01*
X160156282Y-92137595D01*
X160200039Y-92456675D01*
X160305205Y-92761088D01*
X160398186Y-92935044D01*
X160662587Y-93030808D01*
X161618395Y-92075000D01*
X160662587Y-91119192D01*
X160398186Y-91214956D01*
X160257296Y-91504571D01*
X160175616Y-91816108D01*
X160156282Y-92137595D01*
X151556983Y-92137595D01*
X153274579Y-90420000D01*
X160422941Y-90420000D01*
X160528013Y-90577252D01*
X160755748Y-90804987D01*
X160864600Y-90877720D01*
X160842192Y-90939587D01*
X161798000Y-91895395D01*
X161812143Y-91881253D01*
X161991748Y-92060858D01*
X161977605Y-92075000D01*
X162933413Y-93030808D01*
X163197814Y-92935044D01*
X163338704Y-92645429D01*
X163404790Y-92393368D01*
X171073000Y-100061579D01*
X171073001Y-102998887D01*
X170868551Y-103108167D01*
X170680498Y-103262498D01*
X170526167Y-103450551D01*
X170411489Y-103665099D01*
X170340870Y-103897898D01*
X170317025Y-104140000D01*
X170340870Y-104382102D01*
X170411489Y-104614901D01*
X170526167Y-104829449D01*
X170680498Y-105017502D01*
X170868551Y-105171833D01*
X171083099Y-105286511D01*
X171315898Y-105357130D01*
X171497335Y-105375000D01*
X172418665Y-105375000D01*
X172600102Y-105357130D01*
X172832901Y-105286511D01*
X173047449Y-105171833D01*
X173235502Y-105017502D01*
X173389833Y-104829449D01*
X173504511Y-104614901D01*
X173575130Y-104382102D01*
X173598975Y-104140000D01*
X173575130Y-103897898D01*
X173504511Y-103665099D01*
X173389833Y-103450551D01*
X173235502Y-103262498D01*
X173047449Y-103108167D01*
X172843000Y-102998887D01*
X172843000Y-99738469D01*
X172847281Y-99695000D01*
X172843000Y-99651531D01*
X172843000Y-99651523D01*
X172830195Y-99521510D01*
X172779589Y-99354687D01*
X172697411Y-99200941D01*
X172586817Y-99066183D01*
X172553051Y-99038472D01*
X163396103Y-89881525D01*
X163433000Y-89696033D01*
X163433000Y-89373967D01*
X163370168Y-89058088D01*
X163246918Y-88760537D01*
X163067987Y-88492748D01*
X162840252Y-88265013D01*
X162840233Y-88265000D01*
X162840252Y-88264987D01*
X163067987Y-88037252D01*
X163246918Y-87769463D01*
X163370168Y-87471912D01*
X163433000Y-87156033D01*
X163433000Y-86833967D01*
X163370168Y-86518088D01*
X163246918Y-86220537D01*
X163067987Y-85952748D01*
X162840252Y-85725013D01*
X162840233Y-85725000D01*
X162840252Y-85724987D01*
X163067987Y-85497252D01*
X163246918Y-85229463D01*
X163370168Y-84931912D01*
X163433000Y-84616033D01*
X163433000Y-84293967D01*
X163370168Y-83978088D01*
X163246918Y-83680537D01*
X163067987Y-83412748D01*
X162840252Y-83185013D01*
X162840233Y-83185000D01*
X162840252Y-83184987D01*
X163067987Y-82957252D01*
X163173059Y-82800000D01*
X163176931Y-82800000D01*
X163220400Y-82804281D01*
X163263869Y-82800000D01*
X163263877Y-82800000D01*
X163393890Y-82787195D01*
X163560713Y-82736589D01*
X163714459Y-82654411D01*
X163849217Y-82543817D01*
X163876934Y-82510044D01*
X167610732Y-78776247D01*
X167610736Y-78776242D01*
X169186526Y-77200452D01*
X169418000Y-77223251D01*
X169711777Y-77194316D01*
X169994264Y-77108625D01*
X170254606Y-76969469D01*
X170482797Y-76782197D01*
X170670069Y-76554006D01*
X170688000Y-76520459D01*
X170705931Y-76554006D01*
X170893203Y-76782197D01*
X171121395Y-76969469D01*
X171381737Y-77108625D01*
X171664224Y-77194316D01*
X171958000Y-77223251D01*
X172251777Y-77194316D01*
X172534264Y-77108625D01*
X172794606Y-76969469D01*
X173022797Y-76782197D01*
X173210069Y-76554006D01*
X173228000Y-76520459D01*
X173245931Y-76554006D01*
X173433203Y-76782197D01*
X173661395Y-76969469D01*
X173921737Y-77108625D01*
X174204224Y-77194316D01*
X174498000Y-77223251D01*
X174791777Y-77194316D01*
X175074264Y-77108625D01*
X175334606Y-76969469D01*
X175562797Y-76782197D01*
X175750069Y-76554006D01*
X175889225Y-76293663D01*
X175974916Y-76011176D01*
X175996600Y-75791018D01*
X175996600Y-75338981D01*
X175974916Y-75118823D01*
X175889225Y-74836336D01*
X175750069Y-74575994D01*
X175562797Y-74347803D01*
X175334605Y-74160531D01*
X175074263Y-74021375D01*
X174791776Y-73935684D01*
X174498000Y-73906749D01*
X174204223Y-73935684D01*
X173921736Y-74021375D01*
X173661394Y-74160531D01*
X173433203Y-74347803D01*
X173245931Y-74575995D01*
X173228000Y-74609541D01*
X173210069Y-74575994D01*
X173022797Y-74347803D01*
X172794605Y-74160531D01*
X172534263Y-74021375D01*
X172251776Y-73935684D01*
X171958000Y-73906749D01*
X171664223Y-73935684D01*
X171381736Y-74021375D01*
X171121394Y-74160531D01*
X170893203Y-74347803D01*
X170705931Y-74575995D01*
X170688000Y-74609541D01*
X170670069Y-74575994D01*
X170482797Y-74347803D01*
X170254605Y-74160531D01*
X169994263Y-74021375D01*
X169711776Y-73935684D01*
X169418000Y-73906749D01*
X169124223Y-73935684D01*
X168841736Y-74021375D01*
X168581394Y-74160531D01*
X168353203Y-74347803D01*
X168165931Y-74575995D01*
X168148000Y-74609541D01*
X168130069Y-74575994D01*
X167942797Y-74347803D01*
X167714605Y-74160531D01*
X167454263Y-74021375D01*
X167171776Y-73935684D01*
X166878000Y-73906749D01*
X166584223Y-73935684D01*
X166301736Y-74021375D01*
X166041394Y-74160531D01*
X165813203Y-74347803D01*
X165625931Y-74575995D01*
X165608000Y-74609541D01*
X165590069Y-74575994D01*
X165402797Y-74347803D01*
X165174605Y-74160531D01*
X164914263Y-74021375D01*
X164631776Y-73935684D01*
X164338000Y-73906749D01*
X164044223Y-73935684D01*
X163761736Y-74021375D01*
X163501394Y-74160531D01*
X163273203Y-74347803D01*
X163085931Y-74575995D01*
X163068000Y-74609541D01*
X163050069Y-74575994D01*
X162862797Y-74347803D01*
X162634605Y-74160531D01*
X162374263Y-74021375D01*
X162091776Y-73935684D01*
X161798000Y-73906749D01*
X161504223Y-73935684D01*
X161221736Y-74021375D01*
X160961394Y-74160531D01*
X160733203Y-74347803D01*
X160545931Y-74575995D01*
X160528000Y-74609541D01*
X160510069Y-74575994D01*
X160322797Y-74347803D01*
X160094605Y-74160531D01*
X159834263Y-74021375D01*
X159551776Y-73935684D01*
X159258000Y-73906749D01*
X158964223Y-73935684D01*
X158681736Y-74021375D01*
X158421394Y-74160531D01*
X158193203Y-74347803D01*
X158005931Y-74575995D01*
X157988000Y-74609541D01*
X157970069Y-74575994D01*
X157782797Y-74347803D01*
X157554605Y-74160531D01*
X157294263Y-74021375D01*
X157011776Y-73935684D01*
X156718000Y-73906749D01*
X156424223Y-73935684D01*
X156141736Y-74021375D01*
X155881394Y-74160531D01*
X155653203Y-74347803D01*
X155465931Y-74575995D01*
X155326775Y-74836337D01*
X155241084Y-75118824D01*
X155219400Y-75338982D01*
X155219400Y-75791019D01*
X155241084Y-76011177D01*
X155326775Y-76293664D01*
X155465931Y-76554006D01*
X155592811Y-76708610D01*
X153582951Y-78718471D01*
X153549184Y-78746183D01*
X153521471Y-78779951D01*
X153521468Y-78779954D01*
X153438590Y-78880941D01*
X153356412Y-79034687D01*
X153305805Y-79201510D01*
X153288719Y-79375000D01*
X153293001Y-79418479D01*
X153293000Y-85046531D01*
X153288719Y-85090000D01*
X153293000Y-85133469D01*
X153293000Y-85133476D01*
X153302454Y-85229463D01*
X153305805Y-85263490D01*
X153309779Y-85276589D01*
X153356411Y-85430312D01*
X153438589Y-85584058D01*
X153549183Y-85718817D01*
X153582956Y-85746534D01*
X155426470Y-87590049D01*
X155454183Y-87623817D01*
X155487951Y-87651530D01*
X155487953Y-87651532D01*
X155588941Y-87734411D01*
X155742687Y-87816589D01*
X155909510Y-87867195D01*
X156039523Y-87880000D01*
X156039531Y-87880000D01*
X156083000Y-87884281D01*
X156126469Y-87880000D01*
X160422941Y-87880000D01*
X160528013Y-88037252D01*
X160755748Y-88264987D01*
X160755767Y-88265000D01*
X160755748Y-88265013D01*
X160528013Y-88492748D01*
X160422941Y-88650000D01*
X152951469Y-88650000D01*
X152908000Y-88645719D01*
X152864531Y-88650000D01*
X127240975Y-88650000D01*
X127123000Y-88532025D01*
X127123000Y-85195059D01*
X127280252Y-85089987D01*
X127507987Y-84862252D01*
X127686918Y-84594463D01*
X127810168Y-84296912D01*
X127873000Y-83981033D01*
X127873000Y-83658967D01*
X127810168Y-83343088D01*
X127686918Y-83045537D01*
X127507987Y-82777748D01*
X127280252Y-82550013D01*
X127012463Y-82371082D01*
X126714912Y-82247832D01*
X126399033Y-82185000D01*
X126076967Y-82185000D01*
X125761088Y-82247832D01*
X125463537Y-82371082D01*
X125195748Y-82550013D01*
X124968013Y-82777748D01*
X124895280Y-82886600D01*
X124833413Y-82864192D01*
X123877605Y-83820000D01*
X124833413Y-84775808D01*
X124895280Y-84753400D01*
X124968013Y-84862252D01*
X125195748Y-85089987D01*
X125353000Y-85195059D01*
X125353001Y-88532024D01*
X125201038Y-88683987D01*
X125054939Y-88902641D01*
X124966220Y-89116828D01*
X124937347Y-89021646D01*
X124813382Y-88789725D01*
X124646555Y-88586445D01*
X124443275Y-88419618D01*
X124211354Y-88295653D01*
X123959706Y-88219317D01*
X123763579Y-88200000D01*
X123632421Y-88200000D01*
X123436294Y-88219317D01*
X123184646Y-88295653D01*
X122952725Y-88419618D01*
X122749445Y-88586445D01*
X122582618Y-88789725D01*
X122458653Y-89021646D01*
X122382317Y-89273294D01*
X122356541Y-89535000D01*
X122382317Y-89796706D01*
X122458653Y-90048354D01*
X122582618Y-90280275D01*
X122749445Y-90483555D01*
X122813000Y-90535713D01*
X122813001Y-92666521D01*
X122808719Y-92710000D01*
X122825805Y-92883490D01*
X122876412Y-93050313D01*
X122958590Y-93204059D01*
X123041468Y-93305046D01*
X123041471Y-93305049D01*
X123069184Y-93338817D01*
X123102951Y-93366529D01*
X125988000Y-96251579D01*
X125988001Y-97290478D01*
X125958241Y-97310363D01*
X125758363Y-97510241D01*
X125601320Y-97745273D01*
X125493147Y-98006426D01*
X125438000Y-98283665D01*
X125438000Y-98566335D01*
X125493147Y-98843574D01*
X125601320Y-99104727D01*
X125758363Y-99339759D01*
X125958241Y-99539637D01*
X126193273Y-99696680D01*
X126454426Y-99804853D01*
X126731665Y-99860000D01*
X127014335Y-99860000D01*
X127291574Y-99804853D01*
X127552727Y-99696680D01*
X127787759Y-99539637D01*
X127987637Y-99339759D01*
X128144680Y-99104727D01*
X128252853Y-98843574D01*
X128308000Y-98566335D01*
X128308000Y-98283665D01*
X128252853Y-98006426D01*
X128144680Y-97745273D01*
X127987637Y-97510241D01*
X127787759Y-97310363D01*
X127758000Y-97290479D01*
X127758000Y-97265512D01*
X144482783Y-97265512D01*
X144524213Y-97545130D01*
X144619397Y-97811292D01*
X144686329Y-97936514D01*
X144930298Y-98008097D01*
X145743395Y-97195000D01*
X146102605Y-97195000D01*
X146915702Y-98008097D01*
X147159671Y-97936514D01*
X147280571Y-97681004D01*
X147349300Y-97406816D01*
X147363217Y-97124488D01*
X147321787Y-96844870D01*
X147226603Y-96578708D01*
X147159671Y-96453486D01*
X146915702Y-96381903D01*
X146102605Y-97195000D01*
X145743395Y-97195000D01*
X144930298Y-96381903D01*
X144686329Y-96453486D01*
X144565429Y-96708996D01*
X144496700Y-96983184D01*
X144482783Y-97265512D01*
X127758000Y-97265512D01*
X127758000Y-96202298D01*
X145109903Y-96202298D01*
X145923000Y-97015395D01*
X146736097Y-96202298D01*
X146664514Y-95958329D01*
X146409004Y-95837429D01*
X146134816Y-95768700D01*
X145852488Y-95754783D01*
X145572870Y-95796213D01*
X145306708Y-95891397D01*
X145181486Y-95958329D01*
X145109903Y-96202298D01*
X127758000Y-96202298D01*
X127758000Y-95928466D01*
X127762281Y-95884999D01*
X127758000Y-95841533D01*
X127758000Y-95841523D01*
X127745195Y-95711510D01*
X127694589Y-95544687D01*
X127612411Y-95390941D01*
X127501817Y-95256183D01*
X127468050Y-95228471D01*
X124583000Y-92343422D01*
X124583000Y-90535713D01*
X124646555Y-90483555D01*
X124813382Y-90280275D01*
X124937347Y-90048354D01*
X124966220Y-89953172D01*
X125054939Y-90167359D01*
X125201038Y-90386013D01*
X125386987Y-90571962D01*
X125605641Y-90718061D01*
X125848595Y-90818696D01*
X126106514Y-90870000D01*
X126369486Y-90870000D01*
X126627405Y-90818696D01*
X126870359Y-90718061D01*
X127089013Y-90571962D01*
X127240975Y-90420000D01*
X150771421Y-90420000D01*
X148502951Y-92688470D01*
X148469184Y-92716183D01*
X148441471Y-92749951D01*
X148441468Y-92749954D01*
X148358590Y-92850941D01*
X148276412Y-93004687D01*
X148225805Y-93171510D01*
X148208719Y-93345000D01*
X148213001Y-93388479D01*
X148213000Y-100733422D01*
X147379535Y-99899957D01*
X147379531Y-99899952D01*
X147351017Y-99871438D01*
X147358000Y-99836335D01*
X147358000Y-99553665D01*
X147302853Y-99276426D01*
X147194680Y-99015273D01*
X147037637Y-98780241D01*
X146837759Y-98580363D01*
X146637131Y-98446308D01*
X146664514Y-98431671D01*
X146736097Y-98187702D01*
X145923000Y-97374605D01*
X145109903Y-98187702D01*
X145181486Y-98431671D01*
X145210341Y-98445324D01*
X145008241Y-98580363D01*
X144808363Y-98780241D01*
X144788479Y-98810000D01*
X142691469Y-98810000D01*
X142648000Y-98805719D01*
X142604531Y-98810000D01*
X142604523Y-98810000D01*
X142474510Y-98822805D01*
X142307686Y-98873411D01*
X142153941Y-98955589D01*
X142052953Y-99038468D01*
X142052951Y-99038470D01*
X142019183Y-99066183D01*
X141991470Y-99099951D01*
X140442216Y-100649205D01*
X140410168Y-100488088D01*
X140286918Y-100190537D01*
X140107987Y-99922748D01*
X139880252Y-99695013D01*
X139612463Y-99516082D01*
X139314912Y-99392832D01*
X138999033Y-99330000D01*
X138676967Y-99330000D01*
X138361088Y-99392832D01*
X138063537Y-99516082D01*
X137795748Y-99695013D01*
X137568013Y-99922748D01*
X137389082Y-100190537D01*
X137265832Y-100488088D01*
X137203000Y-100803967D01*
X137203000Y-101126033D01*
X137265832Y-101441912D01*
X137389082Y-101739463D01*
X137568013Y-102007252D01*
X137795748Y-102234987D01*
X137795767Y-102235000D01*
X137795748Y-102235013D01*
X137568013Y-102462748D01*
X137389082Y-102730537D01*
X137265832Y-103028088D01*
X137203000Y-103343967D01*
X137203000Y-103666033D01*
X137265832Y-103981912D01*
X137389082Y-104279463D01*
X137568013Y-104547252D01*
X137795748Y-104774987D01*
X137795767Y-104775000D01*
X137795748Y-104775013D01*
X137568013Y-105002748D01*
X137389082Y-105270537D01*
X137265832Y-105568088D01*
X137203000Y-105883967D01*
X137203000Y-106206033D01*
X137239896Y-106391525D01*
X134649139Y-108982283D01*
X134679589Y-108925314D01*
X134730195Y-108758490D01*
X134735698Y-108702615D01*
X134743000Y-108628477D01*
X134743000Y-108628469D01*
X134747281Y-108585000D01*
X134743000Y-108541531D01*
X134743000Y-106088465D01*
X134747281Y-106044999D01*
X134743000Y-106001533D01*
X134743000Y-106001523D01*
X134730195Y-105871510D01*
X134679589Y-105704687D01*
X134597411Y-105550941D01*
X134532775Y-105472182D01*
X134514532Y-105449953D01*
X134514530Y-105449951D01*
X134486817Y-105416183D01*
X134453049Y-105388470D01*
X132974535Y-103909957D01*
X132974531Y-103909952D01*
X132916104Y-103851525D01*
X132953000Y-103666033D01*
X132953000Y-103343967D01*
X132890168Y-103028088D01*
X132766918Y-102730537D01*
X132626370Y-102520191D01*
X132672494Y-102495537D01*
X132769185Y-102416185D01*
X132848537Y-102319494D01*
X132907502Y-102209180D01*
X132943812Y-102089482D01*
X132956072Y-101965000D01*
X132956072Y-99965000D01*
X132943812Y-99840518D01*
X132907502Y-99720820D01*
X132848537Y-99610506D01*
X132769185Y-99513815D01*
X132672494Y-99434463D01*
X132562180Y-99375498D01*
X132442482Y-99339188D01*
X132318000Y-99326928D01*
X130318000Y-99326928D01*
X130193518Y-99339188D01*
X130073820Y-99375498D01*
X129963506Y-99434463D01*
X129866815Y-99513815D01*
X129787463Y-99610506D01*
X129728498Y-99720820D01*
X129692188Y-99840518D01*
X129679928Y-99965000D01*
X129679928Y-101965000D01*
X129692188Y-102089482D01*
X129728498Y-102209180D01*
X129787463Y-102319494D01*
X129866815Y-102416185D01*
X129963506Y-102495537D01*
X130009630Y-102520191D01*
X129869082Y-102730537D01*
X129745832Y-103028088D01*
X129683000Y-103343967D01*
X129683000Y-103666033D01*
X129745832Y-103981912D01*
X129869082Y-104279463D01*
X130048013Y-104547252D01*
X130275748Y-104774987D01*
X130275767Y-104775000D01*
X130275748Y-104775013D01*
X130048013Y-105002748D01*
X129942941Y-105160000D01*
X126604579Y-105160000D01*
X124989534Y-103544956D01*
X124961817Y-103511183D01*
X124827059Y-103400589D01*
X124673313Y-103318411D01*
X124506490Y-103267805D01*
X124376477Y-103255000D01*
X124376469Y-103255000D01*
X124333000Y-103250719D01*
X124289531Y-103255000D01*
X116756465Y-103255000D01*
X116712999Y-103250719D01*
X116669533Y-103255000D01*
X116669523Y-103255000D01*
X116539510Y-103267805D01*
X116372687Y-103318411D01*
X116218941Y-103400589D01*
X116218939Y-103400590D01*
X116218940Y-103400590D01*
X116117953Y-103483468D01*
X116117951Y-103483470D01*
X116084183Y-103511183D01*
X116056470Y-103544951D01*
X115058000Y-104543421D01*
X115058000Y-104004521D01*
X115087759Y-103984637D01*
X115287637Y-103784759D01*
X115444680Y-103549727D01*
X115552853Y-103288574D01*
X115566684Y-103219039D01*
X125481096Y-103219039D01*
X125521754Y-103353087D01*
X125641963Y-103607420D01*
X125809481Y-103833414D01*
X126017869Y-104022385D01*
X126259119Y-104167070D01*
X126523960Y-104261909D01*
X126746000Y-104140624D01*
X126746000Y-102997000D01*
X127000000Y-102997000D01*
X127000000Y-104140624D01*
X127222040Y-104261909D01*
X127486881Y-104167070D01*
X127728131Y-104022385D01*
X127936519Y-103833414D01*
X128104037Y-103607420D01*
X128224246Y-103353087D01*
X128264904Y-103219039D01*
X128142915Y-102997000D01*
X127000000Y-102997000D01*
X126746000Y-102997000D01*
X125603085Y-102997000D01*
X125481096Y-103219039D01*
X115566684Y-103219039D01*
X115608000Y-103011335D01*
X115608000Y-102728665D01*
X115566685Y-102520961D01*
X125481096Y-102520961D01*
X125603085Y-102743000D01*
X126746000Y-102743000D01*
X126746000Y-101599376D01*
X127000000Y-101599376D01*
X127000000Y-102743000D01*
X128142915Y-102743000D01*
X128264904Y-102520961D01*
X128224246Y-102386913D01*
X128104037Y-102132580D01*
X127936519Y-101906586D01*
X127728131Y-101717615D01*
X127486881Y-101572930D01*
X127222040Y-101478091D01*
X127000000Y-101599376D01*
X126746000Y-101599376D01*
X126523960Y-101478091D01*
X126259119Y-101572930D01*
X126017869Y-101717615D01*
X125809481Y-101906586D01*
X125641963Y-102132580D01*
X125521754Y-102386913D01*
X125481096Y-102520961D01*
X115566685Y-102520961D01*
X115552853Y-102451426D01*
X115444680Y-102190273D01*
X115287637Y-101955241D01*
X115087759Y-101755363D01*
X115058000Y-101735479D01*
X115058000Y-99555078D01*
X115192608Y-99444608D01*
X115371932Y-99226101D01*
X115505182Y-98976808D01*
X115587236Y-98706309D01*
X115614943Y-98425000D01*
X115587236Y-98143691D01*
X115505182Y-97873192D01*
X115371932Y-97623899D01*
X115192608Y-97405392D01*
X114974101Y-97226068D01*
X114724808Y-97092818D01*
X114454309Y-97010764D01*
X114243492Y-96990000D01*
X114102508Y-96990000D01*
X113891691Y-97010764D01*
X113621192Y-97092818D01*
X113371899Y-97226068D01*
X113153392Y-97405392D01*
X112974068Y-97623899D01*
X112840818Y-97873192D01*
X112758764Y-98143691D01*
X112731057Y-98425000D01*
X112758764Y-98706309D01*
X112840818Y-98976808D01*
X112974068Y-99226101D01*
X113153392Y-99444608D01*
X113288000Y-99555078D01*
X113288001Y-101735478D01*
X113258241Y-101755363D01*
X113058363Y-101955241D01*
X112901320Y-102190273D01*
X112793147Y-102451426D01*
X112738000Y-102728665D01*
X112738000Y-103011335D01*
X112793147Y-103288574D01*
X112901320Y-103549727D01*
X113058363Y-103784759D01*
X113258241Y-103984637D01*
X113288000Y-104004521D01*
X113288001Y-105545478D01*
X113258241Y-105565363D01*
X113058363Y-105765241D01*
X112901320Y-106000273D01*
X112793147Y-106261426D01*
X112738000Y-106538665D01*
X112738000Y-106821335D01*
X112793147Y-107098574D01*
X112901320Y-107359727D01*
X113058363Y-107594759D01*
X113258241Y-107794637D01*
X113493273Y-107951680D01*
X113754426Y-108059853D01*
X114031665Y-108115000D01*
X114314335Y-108115000D01*
X114591574Y-108059853D01*
X114852727Y-107951680D01*
X115087759Y-107794637D01*
X115209694Y-107672702D01*
X115859903Y-107672702D01*
X115931486Y-107916671D01*
X116186996Y-108037571D01*
X116461184Y-108106300D01*
X116743512Y-108120217D01*
X117023130Y-108078787D01*
X117289292Y-107983603D01*
X117414514Y-107916671D01*
X117486097Y-107672702D01*
X116673000Y-106859605D01*
X115859903Y-107672702D01*
X115209694Y-107672702D01*
X115287637Y-107594759D01*
X115421692Y-107394131D01*
X115436329Y-107421514D01*
X115680298Y-107493097D01*
X116493395Y-106680000D01*
X116852605Y-106680000D01*
X117665702Y-107493097D01*
X117909671Y-107421514D01*
X118030571Y-107166004D01*
X118099300Y-106891816D01*
X118113217Y-106609488D01*
X118071787Y-106329870D01*
X117976603Y-106063708D01*
X117909671Y-105938486D01*
X117665702Y-105866903D01*
X116852605Y-106680000D01*
X116493395Y-106680000D01*
X116479253Y-106665858D01*
X116658858Y-106486253D01*
X116673000Y-106500395D01*
X117486097Y-105687298D01*
X117414514Y-105443329D01*
X117159004Y-105322429D01*
X116884816Y-105253700D01*
X116852473Y-105252106D01*
X117079579Y-105025000D01*
X123966422Y-105025000D01*
X125581468Y-106640047D01*
X125609183Y-106673817D01*
X125642951Y-106701530D01*
X125642953Y-106701532D01*
X125669693Y-106723477D01*
X125743941Y-106784411D01*
X125897687Y-106866589D01*
X126064510Y-106917195D01*
X126194523Y-106930000D01*
X126194531Y-106930000D01*
X126238000Y-106934281D01*
X126281469Y-106930000D01*
X129942941Y-106930000D01*
X130048013Y-107087252D01*
X130275748Y-107314987D01*
X130384600Y-107387720D01*
X130362192Y-107449587D01*
X131318000Y-108405395D01*
X132273808Y-107449587D01*
X132251400Y-107387720D01*
X132360252Y-107314987D01*
X132587987Y-107087252D01*
X132766918Y-106819463D01*
X132890168Y-106521912D01*
X132922216Y-106360795D01*
X132973001Y-106411580D01*
X132973000Y-108218421D01*
X132924660Y-108266761D01*
X132915961Y-108203325D01*
X132810795Y-107898912D01*
X132717814Y-107724956D01*
X132453413Y-107629192D01*
X131497605Y-108585000D01*
X131511748Y-108599143D01*
X131332143Y-108778748D01*
X131318000Y-108764605D01*
X130362192Y-109720413D01*
X130380152Y-109769999D01*
X128308000Y-109769999D01*
X128308000Y-109713665D01*
X128252853Y-109436426D01*
X128144680Y-109175273D01*
X127987637Y-108940241D01*
X127787759Y-108740363D01*
X127648922Y-108647595D01*
X129676282Y-108647595D01*
X129720039Y-108966675D01*
X129825205Y-109271088D01*
X129918186Y-109445044D01*
X130182587Y-109540808D01*
X131138395Y-108585000D01*
X130182587Y-107629192D01*
X129918186Y-107724956D01*
X129777296Y-108014571D01*
X129695616Y-108326108D01*
X129676282Y-108647595D01*
X127648922Y-108647595D01*
X127552727Y-108583320D01*
X127291574Y-108475147D01*
X127014335Y-108420000D01*
X126731665Y-108420000D01*
X126454426Y-108475147D01*
X126193273Y-108583320D01*
X125958241Y-108740363D01*
X125758363Y-108940241D01*
X125738479Y-108970000D01*
X122551465Y-108970000D01*
X122507999Y-108965719D01*
X122464533Y-108970000D01*
X122464523Y-108970000D01*
X122334510Y-108982805D01*
X122167687Y-109033411D01*
X122013941Y-109115589D01*
X122013939Y-109115590D01*
X122013940Y-109115590D01*
X121912953Y-109198468D01*
X121912951Y-109198470D01*
X121879183Y-109226183D01*
X121851470Y-109259951D01*
X118239439Y-112871983D01*
X118204335Y-112865000D01*
X117921665Y-112865000D01*
X117644426Y-112920147D01*
X117383273Y-113028320D01*
X117148241Y-113185363D01*
X116948363Y-113385241D01*
X116791320Y-113620273D01*
X116683147Y-113881426D01*
X116628000Y-114158665D01*
X116628000Y-114403421D01*
X113711296Y-117320126D01*
X113608492Y-117310000D01*
X113467508Y-117310000D01*
X113256691Y-117330764D01*
X112986192Y-117412818D01*
X112736899Y-117546068D01*
X112518392Y-117725392D01*
X112339068Y-117943899D01*
X112205818Y-118193192D01*
X112123764Y-118463691D01*
X112096057Y-118745000D01*
X111708000Y-118745000D01*
X111708000Y-110204039D01*
X112781096Y-110204039D01*
X112821754Y-110338087D01*
X112941963Y-110592420D01*
X113109481Y-110818414D01*
X113317869Y-111007385D01*
X113559119Y-111152070D01*
X113823960Y-111246909D01*
X114046000Y-111125624D01*
X114046000Y-109982000D01*
X114300000Y-109982000D01*
X114300000Y-111125624D01*
X114522040Y-111246909D01*
X114786881Y-111152070D01*
X115028131Y-111007385D01*
X115236519Y-110818414D01*
X115404037Y-110592420D01*
X115524246Y-110338087D01*
X115564904Y-110204039D01*
X115442915Y-109982000D01*
X114300000Y-109982000D01*
X114046000Y-109982000D01*
X112903085Y-109982000D01*
X112781096Y-110204039D01*
X111708000Y-110204039D01*
X111708000Y-109505961D01*
X112781096Y-109505961D01*
X112903085Y-109728000D01*
X114046000Y-109728000D01*
X114046000Y-108584376D01*
X114300000Y-108584376D01*
X114300000Y-109728000D01*
X115442915Y-109728000D01*
X115564904Y-109505961D01*
X115524246Y-109371913D01*
X115404037Y-109117580D01*
X115236519Y-108891586D01*
X115028131Y-108702615D01*
X114786881Y-108557930D01*
X114522040Y-108463091D01*
X114300000Y-108584376D01*
X114046000Y-108584376D01*
X113823960Y-108463091D01*
X113559119Y-108557930D01*
X113317869Y-108702615D01*
X113109481Y-108891586D01*
X112941963Y-109117580D01*
X112821754Y-109371913D01*
X112781096Y-109505961D01*
X111708000Y-109505961D01*
X111708000Y-73735000D01*
X124296293Y-73735000D01*
X124166406Y-73864887D01*
M02*
