G04 #@! TF.GenerationSoftware,KiCad,Pcbnew,(5.1.2)-2*
G04 #@! TF.CreationDate,2021-03-29T10:10:18+02:00*
G04 #@! TF.ProjectId,Projet_Cabinet,50726f6a-6574-45f4-9361-62696e65742e,rev?*
G04 #@! TF.SameCoordinates,Original*
G04 #@! TF.FileFunction,Copper,L1,Top*
G04 #@! TF.FilePolarity,Positive*
%FSLAX46Y46*%
G04 Gerber Fmt 4.6, Leading zero omitted, Abs format (unit mm)*
G04 Created by KiCad (PCBNEW (5.1.2)-2) date 2021-03-29 10:10:18*
%MOMM*%
%LPD*%
G04 APERTURE LIST*
%ADD10O,2.000000X1.200000*%
%ADD11C,2.000000*%
%ADD12R,2.000000X2.000000*%
%ADD13O,1.600000X1.600000*%
%ADD14C,1.600000*%
%ADD15O,1.400000X1.400000*%
%ADD16C,1.400000*%
%ADD17O,1.727200X2.032000*%
%ADD18C,4.064000*%
%ADD19C,0.500000*%
G04 APERTURE END LIST*
D10*
X171958000Y-111760000D03*
X171958000Y-109220000D03*
X171958000Y-106680000D03*
X171958000Y-104140000D03*
D11*
X161798000Y-92075000D03*
X161798000Y-89535000D03*
X161798000Y-86995000D03*
X161798000Y-84455000D03*
X161798000Y-81915000D03*
X118618000Y-83820000D03*
X121158000Y-83820000D03*
X123698000Y-83820000D03*
X126238000Y-83820000D03*
X131318000Y-108585000D03*
X138838000Y-108585000D03*
X131318000Y-106045000D03*
X138838000Y-106045000D03*
X131318000Y-103505000D03*
X138838000Y-103505000D03*
D12*
X131318000Y-100965000D03*
D11*
X138838000Y-100965000D03*
D13*
X158623000Y-104140000D03*
D14*
X145923000Y-104140000D03*
D13*
X114173000Y-98425000D03*
D14*
X126873000Y-98425000D03*
D13*
X113538000Y-118745000D03*
D14*
X126238000Y-118745000D03*
D13*
X114173000Y-109855000D03*
D14*
X126873000Y-109855000D03*
D13*
X126873000Y-102870000D03*
D14*
X114173000Y-102870000D03*
D15*
X123698000Y-89535000D03*
D16*
X126238000Y-89535000D03*
D14*
X118063000Y-114300000D03*
X123063000Y-114300000D03*
X145923000Y-97195000D03*
X145923000Y-99695000D03*
X162433000Y-104180000D03*
X162433000Y-106680000D03*
X116673000Y-106680000D03*
X114173000Y-106680000D03*
D17*
X138938000Y-123825000D03*
X141478000Y-123825000D03*
X144018000Y-123825000D03*
X146558000Y-123825000D03*
X149098000Y-123825000D03*
X151638000Y-123825000D03*
X154178000Y-123825000D03*
X156718000Y-123825000D03*
X161798000Y-123825000D03*
X164338000Y-123825000D03*
X166878000Y-123825000D03*
X169418000Y-123825000D03*
X171958000Y-123825000D03*
X174498000Y-123825000D03*
X129794000Y-75565000D03*
X132334000Y-75565000D03*
X134874000Y-75565000D03*
X137414000Y-75565000D03*
X139954000Y-75565000D03*
X142494000Y-75565000D03*
X145034000Y-75565000D03*
X147574000Y-75565000D03*
X150114000Y-75565000D03*
X152654000Y-75565000D03*
X156718000Y-75565000D03*
X159258000Y-75565000D03*
X161798000Y-75565000D03*
X164338000Y-75565000D03*
X166878000Y-75565000D03*
X169418000Y-75565000D03*
X171958000Y-75565000D03*
X174498000Y-75565000D03*
D18*
X124968000Y-123825000D03*
X177038000Y-118745000D03*
X126238000Y-75565000D03*
X177038000Y-90805000D03*
D19*
X149098000Y-123825000D02*
X149098000Y-123672600D01*
M02*
